<svg width="45" height="40" viewBox="0 0 45 40" fill="none" xmlns="http://www.w3.org/2000/svg">
<path d="M18.8619 13.766C16.6151 13.766 14.7875 15.5937 14.7875 17.8404C14.7875 19.1625 15.4337 20.399 16.4981 21.1595V24.1101C16.4981 25.4138 17.5582 26.4739 18.8619 26.4739C20.1665 26.4739 21.2283 25.4138 21.2283 24.1101V21.1595C22.2928 20.3981 22.9389 19.1616 22.9389 17.8404C22.9389 15.5937 21.1096 13.766 18.8619 13.766ZM20.184 20.1719C19.9665 20.2959 19.832 20.5273 19.832 20.7779V24.1092C19.832 24.6428 19.3972 25.0768 18.8619 25.0768C18.3284 25.0768 17.8944 24.6428 17.8944 24.1092V20.7779C17.8944 20.5273 17.7599 20.295 17.5416 20.171C16.7042 19.6943 16.1838 18.801 16.1838 17.8396C16.1838 16.363 17.3853 15.1614 18.8619 15.1614C20.3403 15.1614 21.5427 16.363 21.5427 17.8396C21.5427 18.801 21.0222 19.6943 20.184 20.1719ZM43.6595 25.9683L42.0964 25.4601C42.0545 25.447 42.0405 25.433 42.0222 25.3841C41.9322 25.1457 41.8379 24.9196 41.7427 24.7126C41.7253 24.676 41.7218 24.6506 41.7436 24.6078L42.4876 23.1496C42.7906 22.5619 42.6797 21.8537 42.2125 21.3857L40.5272 19.7004C40.0618 19.235 39.3545 19.1223 38.766 19.4209L37.3051 20.1658C37.2632 20.1868 37.2413 20.1876 37.1977 20.1675C37.1322 20.1379 37.0667 20.1099 37.0012 20.082C37.8063 16.5184 38.2516 12.444 38.3599 7.65089C38.3809 6.75235 37.6945 6.00226 36.7969 5.94288C30.2661 5.51675 25.4337 3.8786 20.1176 0.288816C19.5483 -0.0962719 18.813 -0.0962719 18.2445 0.288816C12.9275 3.87947 8.09517 5.51762 1.56352 5.94375C0.665857 6.00313 -0.0204898 6.75322 0.00046734 7.65089C0.0659584 10.5177 0.247587 13.0797 0.555832 15.481C0.604732 15.8635 0.954891 16.1333 1.33736 16.0844C1.71983 16.0355 1.98965 15.6853 1.94075 15.3029C1.63862 12.9496 1.46136 10.4364 1.39674 7.61771C1.39324 7.46926 1.50676 7.34526 1.65521 7.33566C8.36499 6.89818 13.5597 5.13603 19.0252 1.44495C19.1247 1.37771 19.2348 1.37771 19.3352 1.44495C24.8006 5.13603 29.9954 6.8973 36.7043 7.33566C36.8536 7.34526 36.9671 7.46926 36.9636 7.61858C36.872 11.6555 36.5393 15.1632 35.9507 18.2727L35.9446 18.2535C35.7411 17.6256 35.1613 17.2039 34.5012 17.2039H33.1983C33.552 15.2086 33.7948 13.0561 33.938 10.6513C33.9598 10.2871 33.6969 9.96665 33.3354 9.91775C28.297 9.23403 23.9143 7.68058 19.5421 5.02775C19.3195 4.8924 19.04 4.8924 18.8182 5.02775C14.4487 7.68058 10.066 9.23403 5.02756 9.91775C4.66605 9.96665 4.40322 10.2863 4.42505 10.6504C4.80751 17.1122 5.96627 22.1375 7.9668 26.0155C10.2913 30.523 13.882 33.6142 18.9414 35.4645C19.0191 35.4925 19.1003 35.5073 19.1815 35.5073C19.2627 35.5073 19.3439 35.4933 19.4208 35.4645C21.506 34.7022 23.3013 33.7556 24.8827 32.5838C24.881 32.5873 24.8801 32.5899 24.8784 32.5934L24.1309 34.0586C23.8322 34.6454 23.9449 35.3536 24.4103 35.819L24.7456 36.1544C23.1049 37.1289 21.265 37.9453 19.2601 38.5889C19.199 38.609 19.1614 38.609 19.0951 38.5871C9.55082 35.5239 4.20238 28.8098 2.26297 17.458C2.19835 17.0781 1.83684 16.8231 1.45699 16.8878C1.07714 16.9524 0.821289 17.3139 0.88678 17.6937C1.86478 23.4177 3.65225 27.9392 6.35223 31.5167C9.33077 35.4645 13.3598 38.2125 18.6637 39.9144C18.8357 39.9712 19.0086 39.9991 19.1815 39.9991C19.3526 39.9991 19.5238 39.9712 19.6915 39.9162C21.9155 39.2028 23.9545 38.2798 25.762 37.1708L26.0939 37.5026C26.5593 37.968 27.2666 38.0807 27.8551 37.782L29.3213 37.0354C29.3501 37.0206 29.3719 37.0127 29.4226 37.0363C29.6513 37.142 29.881 37.2371 30.0993 37.3157C30.1342 37.3288 30.1561 37.3446 30.1709 37.39L30.6765 38.9539C30.8808 39.5791 31.4606 40 32.1199 40H34.5012C35.1605 40 35.7403 39.58 35.9455 38.9521L36.4484 37.3961C36.4659 37.3454 36.486 37.3297 36.5227 37.3166C36.7401 37.2371 36.9671 37.1437 37.2012 37.0363C37.2378 37.0197 37.2623 37.0154 37.3059 37.0372L38.7677 37.7829C39.3554 38.0807 40.0627 37.9689 40.5272 37.5035L42.2134 35.8199C42.6806 35.3528 42.7915 34.6437 42.4902 34.0595L41.7462 32.5986C41.7253 32.5576 41.7253 32.5331 41.7445 32.4912C41.8458 32.2729 41.9401 32.0459 42.0265 31.8145C42.044 31.7682 42.0623 31.7551 42.1025 31.7429L43.6621 31.2355C44.2882 31.0321 44.7082 30.4523 44.7082 29.7947V27.4135C44.7056 26.7525 44.2855 26.1726 43.6595 25.9683ZM19.1789 34.0656C14.5281 32.3113 11.3549 29.545 9.20502 25.3763C7.36167 21.8022 6.26404 17.1628 5.85712 11.2092C10.6869 10.4775 14.9464 8.95111 19.1789 6.43887C23.414 8.95111 27.6744 10.4775 32.5024 11.2092C32.3505 13.4159 32.1103 15.4007 31.7706 17.2449C31.2616 17.3637 30.8415 17.74 30.6748 18.2543L30.1709 19.8104C30.1543 19.861 30.136 19.875 30.0949 19.8899C29.8714 19.9728 29.6452 20.0671 29.4191 20.1702C29.3789 20.1885 29.3579 20.1885 29.316 20.1667L27.8525 19.4209C27.2657 19.1223 26.5575 19.235 26.0921 19.7013L24.4094 21.3866C23.944 21.852 23.8314 22.5593 24.13 23.1478L24.8722 24.6035C24.8967 24.6515 24.8923 24.676 24.8757 24.7126C24.7744 24.9318 24.6801 25.1597 24.5981 25.3859C24.5797 25.4339 24.5622 25.4479 24.5186 25.4618L22.959 25.9692C22.3329 26.1735 21.9129 26.7533 21.9129 27.4126V29.7939C21.9129 30.4514 22.3329 31.0312 22.959 31.2347L23.93 31.5508C22.5477 32.5576 20.9829 33.3863 19.1789 34.0656ZM43.3102 29.793C43.3102 29.8515 43.2831 29.8882 43.2281 29.9065L41.672 30.413C41.2197 30.5579 40.8791 30.8845 40.7158 31.3299C40.6434 31.5246 40.563 31.7176 40.4757 31.9062C40.2784 32.3367 40.2871 32.8056 40.501 33.2291L41.2476 34.6952C41.2738 34.7467 41.2668 34.7913 41.2267 34.8323L39.5405 36.5159C39.4995 36.5569 39.4523 36.5648 39.4008 36.5386L37.9355 35.7911C37.5112 35.5789 37.0422 35.5711 36.617 35.7684C36.4205 35.8583 36.2275 35.9378 36.045 36.0042C35.6014 36.1657 35.274 36.5028 35.122 36.9603L34.6173 38.5208C34.599 38.5758 34.5606 38.6037 34.5012 38.6037H32.1199C32.0605 38.6037 32.0221 38.5758 32.0047 38.5225L31.4982 36.9542C31.348 36.5037 31.0223 36.1666 30.5778 36.0033C30.3936 35.9369 30.2032 35.8583 30.0085 35.7684C29.7998 35.6723 29.5832 35.6252 29.3675 35.6252C29.1335 35.6252 28.9021 35.6811 28.6856 35.7937L27.2238 36.5386C27.1714 36.5648 27.1243 36.5578 27.0832 36.5167L26.3637 35.7972C26.3628 35.7963 26.3619 35.7946 26.3602 35.7937L25.4005 34.8341C25.3595 34.793 25.3516 34.745 25.3778 34.6943L26.1236 33.2291C26.3375 32.8065 26.3454 32.3375 26.148 31.9105C26.0554 31.7088 25.9786 31.522 25.9131 31.3386C25.9122 31.3351 25.9105 31.3316 25.9096 31.3281C25.742 30.8828 25.4014 30.5588 24.9552 30.4156L23.3965 29.9083C23.3406 29.8899 23.3136 29.8532 23.3136 29.7947V27.4135C23.3136 27.3541 23.3415 27.3157 23.3956 27.2973L24.9517 26.7909C25.4032 26.6468 25.7437 26.3211 25.9122 25.8696C25.983 25.6758 26.0616 25.4837 26.1471 25.3003C26.3454 24.8724 26.3375 24.4035 26.1236 23.9739L25.3796 22.5147C25.3534 22.4624 25.3604 22.4152 25.4023 22.3733L27.085 20.688C27.126 20.6469 27.1732 20.6391 27.2247 20.6653L28.6847 21.4084C29.1073 21.6267 29.5789 21.6363 30.0085 21.4372C30.2041 21.3481 30.3936 21.2695 30.5848 21.1979C31.0275 21.0355 31.3532 20.6976 31.5034 20.2426L32.0082 18.6831C32.0265 18.6272 32.0649 18.5993 32.1243 18.5993H32.367H32.3688H34.5055C34.5641 18.5993 34.6033 18.6272 34.6208 18.6831L35.1273 20.2461C35.2478 20.6103 35.4844 20.8993 35.804 21.0827C35.852 21.115 35.9044 21.1421 35.9621 21.1613C35.9891 21.1726 36.0145 21.1857 36.0424 21.1962C36.2363 21.2687 36.4257 21.3473 36.6179 21.4346C37.0483 21.6345 37.5199 21.6249 37.9434 21.4084L39.4025 20.6635C39.4541 20.6373 39.5021 20.6443 39.5431 20.6854L41.2284 22.3707C41.2695 22.4117 41.2765 22.4562 41.2485 22.5104L40.501 23.9756C40.2888 24.4 40.2819 24.8689 40.4792 25.2968C40.5604 25.4723 40.6416 25.6662 40.7167 25.8653C40.88 26.3141 41.2206 26.6416 41.6711 26.7856L43.2298 27.293C43.2848 27.3113 43.3128 27.3497 43.3128 27.4091V29.793H43.3102ZM39.7684 29.8236C39.1851 32.9226 36.4685 35.172 33.3101 35.172C29.6863 35.172 26.7383 32.2249 26.7383 28.6028C26.7383 24.979 29.6863 22.031 33.3101 22.031C36.4685 22.031 39.1851 24.2813 39.7684 27.382C39.84 27.761 39.5903 28.126 39.2113 28.1968C38.8315 28.2692 38.4673 28.0186 38.3966 27.6396C37.9373 25.1981 35.7979 23.4264 33.3101 23.4264C30.4564 23.4264 28.1346 25.7483 28.1346 28.6019C28.1346 31.4547 30.4564 33.7749 33.3101 33.7749C35.7979 33.7749 37.9373 32.004 38.3966 29.5642C38.4682 29.1852 38.8323 28.9355 39.2113 29.0071C39.5903 29.0796 39.8391 29.4446 39.7684 29.8236ZM36.9968 26.1665C37.2693 26.439 37.2693 26.8808 36.9968 27.1533L33.1128 31.0373C32.9765 31.1735 32.7975 31.2417 32.6194 31.2417C32.4413 31.2417 32.2623 31.1735 32.126 31.0373L29.6234 28.5347C29.351 28.2622 29.351 27.8204 29.6234 27.548C29.8958 27.2755 30.3377 27.2755 30.6101 27.548L32.6194 29.5572L36.0092 26.1674C36.2817 25.8932 36.7244 25.8932 36.9968 26.1665Z" fill="url(#paint0_linear_732_13512)"/>
<defs>
<linearGradient id="paint0_linear_732_13512" x1="1.42382" y1="32" x2="57.8809" y2="14.4137" gradientUnits="userSpaceOnUse">
<stop stop-color="#6511D9"/>
<stop offset="1" stop-color="#FF51BF"/>
</linearGradient>
</defs>
</svg>
