<svg width="40" height="40" viewBox="0 0 40 40" fill="none" xmlns="http://www.w3.org/2000/svg">
<path d="M18.2304 8.2449C18.2304 8.01959 18.4133 7.83673 18.6386 7.83673H24.4778C24.7031 7.83673 24.8859 8.01959 24.8859 8.2449C24.8859 8.4702 24.7031 8.65306 24.4778 8.65306H18.6386C18.4133 8.65306 18.2304 8.4702 18.2304 8.2449ZM27.1741 31.3469H9.03204C8.80673 31.3469 8.62388 31.5298 8.62388 31.7551C8.62388 31.9804 8.80673 32.1633 9.03204 32.1633H27.1741C27.3994 32.1633 27.5822 31.9804 27.5822 31.7551C27.5822 31.5298 27.4002 31.3469 27.1741 31.3469ZM9.03204 28.2449H24.4916C24.7169 28.2449 24.8998 28.062 24.8998 27.8367C24.8998 27.6114 24.7169 27.4286 24.4916 27.4286H9.03204C8.80673 27.4286 8.62388 27.6114 8.62388 27.8367C8.62388 28.062 8.80673 28.2449 9.03204 28.2449ZM18.6386 12.5714H30.3169C30.5422 12.5714 30.7251 12.3886 30.7251 12.1633C30.7251 11.938 30.5422 11.7551 30.3169 11.7551H18.6386C18.4133 11.7551 18.2304 11.938 18.2304 12.1633C18.2304 12.3886 18.4133 12.5714 18.6386 12.5714ZM9.03204 24.3265H26.8614C27.0867 24.3265 27.2696 24.1437 27.2696 23.9184C27.2696 23.6931 27.0867 23.5102 26.8614 23.5102H9.03204C8.80673 23.5102 8.62388 23.6931 8.62388 23.9184C8.62388 24.1437 8.80673 24.3265 9.03204 24.3265ZM18.6386 16.4898H30.3169C30.5422 16.4898 30.7251 16.3069 30.7251 16.0816C30.7251 15.8563 30.5422 15.6735 30.3169 15.6735H18.6386C18.4133 15.6735 18.2304 15.8563 18.2304 16.0816C18.2304 16.3069 18.4133 16.4898 18.6386 16.4898ZM18.6386 20.4082H30.3169C30.5422 20.4082 30.7251 20.2253 30.7251 20C30.7251 19.7747 30.5422 19.5918 30.3169 19.5918H18.6386C18.4133 19.5918 18.2304 19.7747 18.2304 20C18.2304 20.2253 18.4133 20.4082 18.6386 20.4082ZM2.41571 10.6767C2.41571 7.78286 4.77 5.42857 7.66388 5.42857C10.5578 5.42857 12.912 7.78286 12.912 10.6767C12.912 13.5706 10.5578 15.9249 7.66388 15.9249C4.77 15.9241 2.41571 13.5698 2.41571 10.6767ZM3.23204 10.6767C3.23204 13.12 5.2198 15.1086 7.66388 15.1086C10.1071 15.1086 12.0957 13.1208 12.0957 10.6767C12.0957 8.23347 10.108 6.2449 7.66388 6.2449C5.2198 6.2449 3.23204 8.23265 3.23204 10.6767ZM5.58714 12.7951L4.42633 10.9029C4.42633 10.9029 4.42633 10.902 4.42551 10.902C4.10959 10.3837 4.27367 9.70449 4.79204 9.38775C5.31041 9.07102 5.98959 9.23592 6.30633 9.75429L6.84184 10.6269L9.31041 8.82286C9.8002 8.46449 10.4908 8.57061 10.85 9.06041C11.2092 9.5502 11.1031 10.2408 10.6124 10.6L7.17816 13.1102C6.98551 13.249 6.75612 13.3216 6.52429 13.3216C6.45163 13.3216 6.37898 13.3143 6.30714 13.3004C6.00918 13.24 5.74633 13.0555 5.58714 12.7951ZM5.12265 10.4767L6.28347 12.369C6.32592 12.4384 6.39122 12.4849 6.46959 12.5004C6.54959 12.5167 6.63122 12.4988 6.69898 12.4498L10.1308 9.94204C10.2573 9.8498 10.2851 9.6702 10.192 9.54367C10.099 9.41714 9.9202 9.38939 9.79286 9.48245L6.96592 11.5478C6.87367 11.6147 6.75776 11.6408 6.64592 11.6188C6.53408 11.5967 6.43694 11.529 6.37735 11.4318L5.61 10.1812C5.52755 10.0457 5.35122 10.0033 5.21735 10.0857C5.08347 10.1665 5.0402 10.342 5.12265 10.4767ZM39.5578 22.6604C39.072 23.502 38.2435 24.0808 37.2843 24.2473C37.1733 24.2669 37.0949 24.3192 37.0369 24.4131L35.9961 26.6229C35.6549 27.3469 35.672 28.1029 36.0459 28.8106L36.5537 29.7722C36.7251 30.0457 37.0598 30.5975 36.7316 31.1657L35.6516 33.0359C35.5414 33.2269 35.3716 33.3633 35.1798 33.4367V37.6082C35.1798 38.9273 34.1063 40 32.788 40H7.20592C5.88755 40 4.81408 38.9265 4.81408 37.6082V20.6049L4.17898 21.8604C4.10878 21.9984 3.96755 22.0841 3.8149 22.0841C3.80102 22.0841 3.78714 22.0833 3.77245 22.0816C3.60429 22.0645 3.46388 21.9445 3.42061 21.7812L2.80837 19.4963L0.52347 20.1086C0.360205 20.1518 0.186327 20.0906 0.0875519 19.9535C-0.0120399 19.8163 -0.0161216 19.6327 0.0761233 19.4906L2.67531 15.5135C2.60429 15.4612 2.52347 15.4196 2.43204 15.3918L1.94225 15.2408C1.14306 14.9943 0.664695 14.1624 0.851633 13.3478L0.964286 12.8563C1.02551 12.5902 0.959388 12.3437 0.774082 12.1437L0.425511 11.7682C-0.142652 11.1551 -0.141836 10.1959 0.42796 9.58367L0.771633 9.21469C0.957756 9.01469 1.02388 8.76898 0.96347 8.50286L0.849184 8.00327C0.663062 7.18857 1.14388 6.35755 1.94306 6.11265L2.42551 5.9649C2.68674 5.8849 2.86714 5.70449 2.94796 5.44408L3.09898 4.95429C3.32755 4.21306 4.0598 3.74857 4.8149 3.83429V2.39184C4.81408 1.07347 5.88755 0 7.20592 0H28.0043C28.1129 0 28.2165 0.0432653 28.2933 0.119184L35.0598 6.88571C35.1365 6.96245 35.179 7.06612 35.179 7.17469V18.1412C35.3986 18.0245 35.632 17.9306 35.8786 17.8645C36.7226 17.6384 37.6043 17.7543 38.3602 18.191C39.9226 19.0939 40.4598 21.098 39.5578 22.6604ZM28.4124 5.19102C28.4124 6.05959 29.1194 6.76653 29.988 6.76653H33.7855L28.4124 1.39347V5.19102ZM2.67204 14.6131C3.18796 14.7722 3.57408 15.16 3.73245 15.6759L3.8802 16.1584C4.00265 16.5576 4.40184 16.7886 4.80918 16.6955L5.30878 16.5812C5.43122 16.5535 5.55367 16.5396 5.67449 16.5396C6.07367 16.5396 6.4549 16.689 6.75857 16.9714L7.12755 17.3151C7.43286 17.6 7.8949 17.6 8.2002 17.3159L8.57571 16.9673C8.97163 16.6 9.4998 16.4588 10.0263 16.5804L10.5178 16.6931C10.9243 16.7869 11.3243 16.5559 11.4475 16.1576L11.5986 15.6678C11.7578 15.1518 12.1455 14.7657 12.6614 14.6073L13.1431 14.4596C13.5422 14.3371 13.7733 13.938 13.6802 13.5306L13.5659 13.031C13.4459 12.5045 13.588 11.9763 13.9561 11.5812L14.2998 11.2122C14.5839 10.9069 14.5847 10.4457 14.3006 10.1388L13.952 9.76327C13.5847 9.36735 13.4435 8.83918 13.5651 8.31265L13.6778 7.82122C13.7716 7.41469 13.5414 7.01469 13.1422 6.89143L12.6524 6.74041C12.1365 6.58122 11.7504 6.19429 11.592 5.67755L11.4443 5.1951C11.3218 4.79592 10.9227 4.5649 10.5153 4.65796L10.0157 4.77224C9.48918 4.89224 8.96102 4.7502 8.56592 4.38204L8.19694 4.03837C7.89163 3.75429 7.43041 3.75347 7.12347 4.03755L6.74796 4.38612C6.35204 4.75347 5.82306 4.89469 5.29735 4.77306L4.80592 4.66041C4.39939 4.56735 3.99939 4.79673 3.87612 5.19592L3.7251 5.68571C3.56592 6.20163 3.17816 6.58775 2.66225 6.74612L2.1798 6.89388C1.78061 7.01633 1.54959 7.41551 1.64265 7.82286L1.75694 8.32245C1.87694 8.84898 1.7349 9.37714 1.36674 9.77225L1.02306 10.1412C0.73898 10.4465 0.738164 10.9078 1.02225 11.2139L1.37082 11.5894C1.73816 11.9853 1.87939 12.5143 1.75776 13.04L1.6451 13.5314C1.55123 13.938 1.78143 14.338 2.18061 14.4612L2.67204 14.6131ZM10.3365 17.489L9.8451 17.3763C9.82633 17.3722 9.80837 17.3698 9.79041 17.3665L11.3953 20.5388L11.8369 18.8914C11.8949 18.6735 12.1194 18.5445 12.3365 18.6024L13.9839 19.0441L12.2378 16.3714L12.2296 16.3984C11.9822 17.1976 11.1512 17.6767 10.3365 17.489ZM5.53653 17.3698C5.52102 17.3722 5.50633 17.3739 5.49082 17.3771L4.99122 17.4914C4.17571 17.6776 3.34551 17.1967 3.10061 16.3976L3.09245 16.3698L1.34469 19.0449L2.99204 18.6033C3.21 18.5453 3.43367 18.6743 3.49163 18.8922L3.93327 20.5396L5.53653 17.3698ZM34.3635 37.6082V33.3608L27.112 29.1739C26.6704 28.9192 26.5186 28.3518 26.7733 27.9102L27.8533 26.04C28.1896 25.458 28.8557 25.4816 29.1553 25.4971L30.3104 25.471C31.1251 25.4522 31.801 25.089 32.2663 24.4204L33.6353 22.449C33.6875 22.3518 33.6933 22.2571 33.6549 22.1518C33.3202 21.2384 33.4067 20.231 33.8933 19.3894C34.0263 19.1592 34.1847 18.9486 34.3635 18.7608V7.58286H29.9888C28.6696 7.58286 27.5969 6.50939 27.5969 5.19102V0.816326H7.20592C6.33735 0.816326 5.63041 1.52327 5.63041 2.39184V3.99592C5.83939 4.00735 6.03286 3.93714 6.19531 3.78612L6.57082 3.43755C7.18388 2.86939 8.14306 2.8702 8.75531 3.43918L9.12429 3.78286C9.32429 3.96898 9.57 4.0351 9.83694 3.97469L10.3365 3.86041C11.1512 3.67429 11.9822 4.1551 12.2271 4.95429L12.3749 5.43673C12.4549 5.69796 12.6353 5.87837 12.8957 5.95837L13.3855 6.10939C14.1839 6.35592 14.6631 7.18776 14.4761 8.00245L14.3635 8.49388C14.3022 8.76 14.3684 9.00653 14.5537 9.20653L14.9022 9.58286C15.4704 10.1959 15.4696 11.1551 14.8998 11.7673L14.5561 12.1363C14.37 12.3363 14.3039 12.582 14.3643 12.8482L14.4786 13.3478C14.6647 14.1633 14.1839 14.9935 13.3847 15.2384L12.9022 15.3861C12.8076 15.4155 12.7243 15.458 12.6516 15.5118L15.2508 19.4898C15.3431 19.6318 15.339 19.8155 15.2394 19.9527C15.1398 20.0898 14.9667 20.151 14.8035 20.1078L12.5186 19.4955L11.9063 21.7804C11.8622 21.9437 11.7227 22.0637 11.5545 22.0808C11.5406 22.0824 11.5259 22.0833 11.512 22.0833C11.3594 22.0833 11.2182 21.9976 11.148 21.8596L9.02551 17.6637L8.75612 17.9135C8.45 18.1976 8.05735 18.3388 7.66551 18.3388C7.27204 18.3388 6.87857 18.1959 6.57245 17.911L6.30306 17.6604L5.63041 18.991V37.6082C5.63041 38.4767 6.33735 39.1837 7.20592 39.1837H32.7871C33.6565 39.1837 34.3635 38.4767 34.3635 37.6082ZM34.9447 32.6278L35.2549 32.0906L27.7904 27.7812L27.4802 28.3184C27.4508 28.3698 27.4688 28.4375 27.5202 28.4669L34.7961 32.6678C34.8467 32.6971 34.9153 32.6792 34.9447 32.6278ZM37.9529 18.8988C37.3847 18.5706 36.7235 18.4841 36.09 18.6539C35.4565 18.8237 34.9275 19.2294 34.5994 19.7976C34.2345 20.4294 34.17 21.1853 34.4206 21.871C34.5431 22.2065 34.5129 22.5608 34.3341 22.8702C34.3284 22.88 34.3227 22.8898 34.3161 22.8988L32.9357 24.8857C32.3251 25.7649 31.3986 26.2629 30.3284 26.2873L29.1586 26.3143C29.1488 26.3143 29.1382 26.3143 29.1284 26.3135C29.0745 26.311 29.0263 26.3094 28.9822 26.3094C28.7014 26.3094 28.6092 26.3633 28.5602 26.449L28.1986 27.0759L35.6631 31.3853L36.0247 30.7584C36.0802 30.662 36.0704 30.538 35.8541 30.1935C35.8484 30.1853 35.8435 30.1763 35.8394 30.1673L35.3243 29.1927C34.8329 28.2629 34.8092 27.2269 35.2573 26.2759L36.3071 24.0482C36.312 24.0375 36.3169 24.0278 36.3227 24.018C36.5014 23.7086 36.7929 23.5045 37.1447 23.4441C37.8639 23.3192 38.4859 22.8849 38.8508 22.2531C39.5275 21.08 39.1251 19.5755 37.9529 18.8988Z" fill="url(#paint0_linear_732_13504)"/>
<defs>
<linearGradient id="paint0_linear_732_13504" x1="1.27374" y1="32" x2="52.6878" y2="17.6727" gradientUnits="userSpaceOnUse">
<stop stop-color="#6511D9"/>
<stop offset="1" stop-color="#FF51BF"/>
</linearGradient>
</defs>
</svg>
