<svg width="35" height="40" viewBox="0 0 35 40" fill="none" xmlns="http://www.w3.org/2000/svg">
<path d="M33.6054 4.93453L12.3129 0.0413812C11.8718 -0.0574685 11.4096 0.0224075 11.0273 0.263531C10.645 0.504655 10.3737 0.887393 10.2729 1.328L8.38634 9.54102H1.7066C1.25425 9.54189 0.820673 9.72197 0.500811 10.0418C0.18095 10.3617 0.000868624 10.7953 0 11.2476V34.1267C0.000880914 34.5791 0.180966 35.0127 0.500825 35.3325C0.820684 35.6524 1.25425 35.8325 1.7066 35.8333H19.2059C20.8457 37.8514 23.0807 39.3002 25.5924 39.9732C25.655 39.9923 25.7202 40.0013 25.7857 39.9999C25.8511 40.0008 25.9163 39.9918 25.979 39.9732C32.0321 38.1266 34.1854 33.8801 34.1854 30.8069C34.1854 28.247 32.6654 26.1737 30.5855 25.6871L34.8853 6.97445C34.9848 6.5343 34.9061 6.07265 34.6662 5.69041C34.4264 5.30817 34.045 5.03641 33.6054 4.93453ZM1.33328 11.2476C1.33538 11.1493 1.37539 11.0555 1.44495 10.986C1.51451 10.9164 1.60825 10.8764 1.7066 10.8743H23.5524C23.6015 10.8742 23.6501 10.8838 23.6954 10.9026C23.7407 10.9213 23.7819 10.9488 23.8166 10.9835C23.8513 11.0181 23.8788 11.0593 23.8975 11.1047C23.9162 11.15 23.9258 11.1986 23.9257 11.2476V24.1271L19.9459 18.154C19.8846 18.0637 19.8022 17.9897 19.7057 17.9386C19.6093 17.8874 19.5018 17.8607 19.3926 17.8607C19.2834 17.8607 19.1759 17.8874 19.0795 17.9386C18.983 17.9897 18.9005 18.0637 18.8393 18.154L13.3262 26.427L9.5463 20.7539C9.48432 20.6635 9.40125 20.5895 9.30426 20.5384C9.20727 20.4873 9.09929 20.4606 8.98966 20.4606C8.88002 20.4606 8.77204 20.4873 8.67505 20.5384C8.57806 20.5895 8.49499 20.6635 8.43301 20.7539L1.33328 31.4068V11.2476ZM1.7066 34.5001C1.60825 34.498 1.51451 34.458 1.44495 34.3884C1.37539 34.3188 1.33538 34.2251 1.33328 34.1267V33.8201L8.99299 22.3272L12.5195 27.6337L10.5196 30.6402C10.4702 30.7122 10.4357 30.7933 10.4181 30.8787C10.4004 30.9642 10.3999 31.0523 10.4167 31.1379C10.4334 31.2236 10.4671 31.305 10.5156 31.3775C10.5642 31.45 10.6268 31.5121 10.6996 31.5602C10.8094 31.6355 10.9398 31.6751 11.0729 31.6735C11.1822 31.6744 11.2901 31.6481 11.3867 31.5969C11.4833 31.5457 11.5656 31.4712 11.6262 31.3802L19.3926 19.7273L23.4191 25.7671C22.9287 25.6435 22.4249 25.5808 21.9192 25.5804C19.3726 25.5804 17.386 27.8736 17.386 30.8069C17.4019 32.0975 17.7313 33.365 18.346 34.5001H1.7066ZM32.8521 30.8069C32.8521 33.3934 30.9921 36.9733 25.7857 38.6332C20.5725 36.9733 18.7193 33.3934 18.7193 30.8069C18.7193 28.8936 19.9126 26.9137 21.9192 26.9137C22.5452 26.9091 23.1656 27.0313 23.7431 27.2731C24.3205 27.5148 24.843 27.8711 25.279 28.3203C25.3439 28.39 25.4226 28.4455 25.5101 28.4832C25.5976 28.5209 25.6919 28.5401 25.7871 28.5394C25.8824 28.5388 25.9765 28.5184 26.0634 28.4796C26.1504 28.4407 26.2283 28.3842 26.2923 28.3136C26.7294 27.8663 27.2523 27.5118 27.8296 27.2712C28.4069 27.0307 29.0268 26.9091 29.6522 26.9137C31.6521 26.9137 32.8521 28.8936 32.8521 30.8069ZM33.592 6.68113L29.2455 25.5937C27.9766 25.6765 26.766 26.1571 25.7857 26.967C25.6176 26.8282 25.4418 26.6991 25.259 26.5804C25.2443 26.5739 25.2307 26.5648 25.219 26.5537C25.2452 26.4833 25.2587 26.4088 25.259 26.3337V11.2476C25.2582 10.7953 25.0781 10.3617 24.7582 10.0418C24.4384 9.72197 24.0048 9.54189 23.5524 9.54102H9.74629L11.5729 1.62132C11.5837 1.57356 11.6039 1.52842 11.6323 1.48848C11.6606 1.44854 11.6966 1.41459 11.7381 1.38857C11.7796 1.36256 11.8258 1.345 11.8741 1.33689C11.9224 1.32878 11.9718 1.33029 12.0195 1.34133L33.3054 6.22781C33.4021 6.25239 33.4857 6.31308 33.539 6.39739C33.5923 6.48171 33.6113 6.58324 33.592 6.68113ZM6.39309 12.6609C5.74703 12.6609 5.11547 12.8525 4.57829 13.2114C4.04111 13.5703 3.62243 14.0805 3.3752 14.6774C3.12796 15.2743 3.06327 15.9311 3.18931 16.5647C3.31535 17.1984 3.62646 17.7804 4.08329 18.2372C4.54013 18.6941 5.12217 19.0052 5.75582 19.1312C6.38946 19.2573 7.04626 19.1926 7.64314 18.9453C8.24002 18.6981 8.75019 18.2794 9.10912 17.7422C9.46805 17.2051 9.65963 16.5735 9.65963 15.9274C9.65785 15.0616 9.31312 14.2318 8.70092 13.6196C8.08871 13.0074 7.25888 12.6627 6.39309 12.6609ZM6.39309 17.8607C6.01073 17.8607 5.63695 17.7473 5.31903 17.5349C5.0011 17.3225 4.75331 17.0205 4.60699 16.6673C4.46067 16.314 4.42238 15.9253 4.49698 15.5503C4.57157 15.1753 4.7557 14.8308 5.02607 14.5604C5.29644 14.29 5.64091 14.1059 6.01593 14.0313C6.39094 13.9567 6.77966 13.995 7.13291 14.1413C7.48617 14.2877 7.78811 14.5355 8.00053 14.8534C8.21296 15.1713 8.32635 15.5451 8.32635 15.9274C8.32448 16.4396 8.1202 16.9302 7.75804 17.2924C7.39589 17.6545 6.90525 17.8588 6.39309 17.8607Z" fill="url(#paint0_linear_732_13487)"/>
<defs>
<linearGradient id="paint0_linear_732_13487" x1="1.11233" y1="32" x2="46.7927" y2="20.8836" gradientUnits="userSpaceOnUse">
<stop stop-color="#6511D9"/>
<stop offset="1" stop-color="#FF51BF"/>
</linearGradient>
</defs>
</svg>
