<svg width="39" height="40" viewBox="0 0 39 40" fill="none" xmlns="http://www.w3.org/2000/svg">
<path d="M37.6904 11.4133L32.5837 6.30667C31.957 5.68 31.117 5.33333 30.2237 5.33333H29.977C29.8037 2.25333 28.437 0 26.6637 0C24.8904 0 23.5237 2.25333 23.3504 5.33333H19.3304C19.2837 5.33333 19.2304 5.33333 19.1837 5.34667L13.777 6.54667C12.9837 6.69333 12.297 7.14667 11.837 7.81333L0.517037 24.5533C-0.416297 25.9333 -0.0562967 27.82 1.35704 28.7867L5.99704 31.4933C6.01704 31.8867 6.11037 32.2733 6.2837 32.6467C6.6437 33.42 7.29037 34.0067 8.11704 34.3L14.6637 36.48V36.6667C14.6637 38.5067 16.157 40 17.997 40H35.3304C37.1704 40 38.6637 38.5067 38.6637 36.6667V13.7733C38.6637 12.88 38.317 12.0467 37.6904 11.4133ZM26.6637 1.33333C27.5304 1.33333 28.4837 3.00667 28.637 5.33333H24.6837C24.8437 3.00667 25.797 1.33333 26.657 1.33333H26.6637ZM1.61704 25.3L12.9437 8.56667C13.197 8.19333 13.577 7.94 14.0437 7.85333L19.397 6.66H19.8304L15.2904 8.46C14.5237 8.80667 13.917 9.45333 13.6304 10.2333L6.2437 30.0867L2.0637 27.6533C1.29037 27.1267 1.09037 26.0667 1.61037 25.2933L1.61704 25.3ZM8.55037 33.04C8.07704 32.8733 7.7037 32.5333 7.49037 32.0867C7.29037 31.6533 7.27037 31.1667 7.43704 30.72L14.8837 10.7C15.0504 10.2533 15.397 9.88 15.8104 9.69333L18.3704 8.68L15.637 11.4133C15.0104 12.04 14.6637 12.88 14.6637 13.7733V35.08L8.55037 33.04ZM37.3304 36.6667C37.3304 37.7667 36.4304 38.6667 35.3304 38.6667H17.997C16.897 38.6667 15.997 37.7667 15.997 36.6667V13.7733C15.997 13.2467 16.2104 12.7333 16.5837 12.36L21.6904 7.25333C22.0637 6.88 22.577 6.66667 23.1037 6.66667H28.6437C28.5837 7.56667 28.4037 8.41333 28.1237 9.1C27.7037 8.82667 27.2037 8.66667 26.6704 8.66667C25.7837 8.66667 25.0037 9.10667 24.517 9.77333C24.497 9.79333 24.4837 9.81333 24.4637 9.83333C24.1704 10.26 24.0037 10.7733 24.0037 11.3333C24.0037 12.8067 25.197 14 26.6704 14C28.1437 14 29.337 12.8067 29.337 11.3333C29.337 10.9267 29.237 10.5467 29.077 10.2067C29.5837 9.26 29.9037 8.01333 29.9837 6.66667H30.2304C30.757 6.66667 31.2704 6.88 31.6437 7.25333L36.7504 12.36C37.1237 12.7333 37.337 13.2467 37.337 13.7733V36.6667H37.3304ZM26.6637 12C27.1237 12 27.5704 11.8333 27.977 11.5333C27.877 12.1733 27.3304 12.6667 26.6637 12.6667C25.997 12.6667 25.4504 12.1733 25.3504 11.5333C25.757 11.8333 26.2037 12 26.6637 12ZM25.897 10.2467C26.117 10.0933 26.377 10 26.6637 10C26.9504 10 27.217 10.0933 27.4304 10.2467C27.2237 10.4667 26.957 10.6667 26.6637 10.6667C26.3704 10.6667 26.1037 10.4733 25.897 10.2467Z" fill="url(#paint0_linear_732_13495)"/>
<path d="M28.6634 21.9993C29.7634 21.9993 30.6634 22.8993 30.6634 23.9993C30.6634 24.366 30.9634 24.666 31.3301 24.666C31.6967 24.666 31.9967 24.366 31.9967 23.9993C31.9967 22.1593 30.5034 20.666 28.6634 20.666H27.3301V19.3327C27.3301 18.966 27.0301 18.666 26.6634 18.666C26.2967 18.666 25.9967 18.966 25.9967 19.3327V20.666H24.6634C22.8234 20.666 21.3301 22.1593 21.3301 23.9993C21.3301 25.8393 22.8234 27.3327 24.6634 27.3327H25.9967V31.3327H24.6634C23.5634 31.3327 22.6634 30.4327 22.6634 29.3327C22.6634 28.966 22.3634 28.666 21.9967 28.666C21.6301 28.666 21.3301 28.966 21.3301 29.3327C21.3301 31.1727 22.8234 32.666 24.6634 32.666H25.9967V33.9993C25.9967 34.366 26.2967 34.666 26.6634 34.666C27.0301 34.666 27.3301 34.366 27.3301 33.9993V32.666H28.6634C30.5034 32.666 31.9967 31.1727 31.9967 29.3327C31.9967 27.4927 30.5034 25.9993 28.6634 25.9993H27.3301V21.9993H28.6634ZM28.6634 27.3327C29.7634 27.3327 30.6634 28.2327 30.6634 29.3327C30.6634 30.4327 29.7634 31.3327 28.6634 31.3327H27.3301V27.3327H28.6634ZM25.9967 25.9993H24.6634C23.5634 25.9993 22.6634 25.0993 22.6634 23.9993C22.6634 22.8993 23.5634 21.9993 24.6634 21.9993H25.9967V25.9993Z" fill="url(#paint1_linear_732_13495)"/>
<defs>
<linearGradient id="paint0_linear_732_13495" x1="1.23133" y1="32" x2="51.1691" y2="18.5475" gradientUnits="userSpaceOnUse">
<stop stop-color="#6511D9"/>
<stop offset="1" stop-color="#FF51BF"/>
</linearGradient>
<linearGradient id="paint1_linear_732_13495" x1="21.6698" y1="31.466" x2="35.9535" y2="28.8121" gradientUnits="userSpaceOnUse">
<stop stop-color="#6511D9"/>
<stop offset="1" stop-color="#FF51BF"/>
</linearGradient>
</defs>
</svg>
