<svg width="40" height="40" viewBox="0 0 40 40" fill="none" xmlns="http://www.w3.org/2000/svg">
<g clip-path="url(#clip0_732_17900)">
<path d="M0.677862 17.9668H23.7288V22.0346H0.677862V17.9668Z" fill="#EE5281"/>
<path d="M0.677841 22.7109H23.7287C24.1034 22.7109 24.4067 22.4073 24.4067 22.0329V17.9651C24.4067 17.5907 24.1035 17.2871 23.7287 17.2871H0.677841C0.303139 17.2871 -0.00015831 17.5907 -0.00015831 17.9651V22.0329C-5.91278e-05 22.4074 0.303139 22.7109 0.677841 22.7109ZM23.0507 21.355H1.35584V18.6431H23.0507V21.355Z" fill="black"/>
<path d="M39.322 19.9997L20.339 30.8472V9.15234L39.322 19.9997Z" fill="#FFB01F"/>
<path d="M20.339 31.5254C20.4549 31.5254 20.5714 31.4956 20.6753 31.4361L39.6583 20.5886C39.8695 20.468 40 20.2432 40 19.9999C40 19.7566 39.8695 19.532 39.6583 19.4113L20.6753 8.56391C20.4654 8.44374 20.2071 8.44523 19.9987 8.56609C19.7895 8.68745 19.661 8.9108 19.661 9.15253V30.8474C19.661 31.0892 19.7895 31.3125 19.9987 31.4339C20.1039 31.4947 20.2212 31.5254 20.339 31.5254ZM37.9556 19.9999L21.0169 29.6791V10.3206L37.9556 19.9999Z" fill="black"/>
<path d="M33.2202 19.9999L23.7287 25.4237V14.5762L33.2202 19.9999Z" fill="#EE5281"/>
<path d="M23.7287 26.1016C23.8446 26.1016 23.9611 26.0718 24.065 26.0123L33.5565 20.5886C33.7677 20.4679 33.8982 20.2432 33.8982 20C33.8982 19.7568 33.7677 19.532 33.5565 19.4114L24.065 13.9877C23.8551 13.8675 23.5975 13.8692 23.3884 13.9898C23.1792 14.1112 23.0507 14.3346 23.0507 14.5763V25.4237C23.0507 25.6654 23.1792 25.8888 23.3884 26.0101C23.4936 26.071 23.6109 26.1016 23.7287 26.1016ZM31.8538 19.9999L24.4066 24.2553V15.7443L31.8538 19.9999Z" fill="black"/>
</g>
<defs>
<clipPath id="clip0_732_17900">
<rect width="40" height="40" fill="white" transform="matrix(-1 0 0 1 40 0)"/>
</clipPath>
</defs>
</svg>
