<svg width="16" height="16" viewBox="0 0 16 16" fill="none" xmlns="http://www.w3.org/2000/svg">
<path fill-rule="evenodd" clip-rule="evenodd" d="M7.48198 13.5818C8.0507 13.5818 8.51233 14.1235 8.51233 14.7909C8.51233 15.4583 8.0507 16 7.48198 16C6.91326 16 6.45163 15.4583 6.45163 14.7909C6.45163 14.1235 6.91326 13.5818 7.48198 13.5818ZM11.9636 13.5818C12.5323 13.5818 12.9939 14.1235 12.9939 14.7909C12.9939 15.4583 12.5323 16 11.9636 16C11.3949 16 10.9332 15.4583 10.9332 14.7909C10.9332 14.1235 11.3949 13.5818 11.9636 13.5818ZM0.640449 1.50314H2.09606C2.3794 1.50314 2.6284 1.725 2.70423 2.04607C2.70423 2.04607 2.70474 2.04607 2.70474 2.04667C3.19507 4.118 4.25463 8.59374 4.74701 10.6729C4.97808 11.6499 5.73637 12.3257 6.5997 12.3257H12.8208C13.7036 12.3257 14.4731 11.6205 14.6868 10.6152C15.1202 8.58232 15.981 4.54128 15.981 4.54128C16.0286 4.31701 15.9856 4.07891 15.8642 3.89673C15.7427 3.71395 15.5568 3.60753 15.3595 3.60753H6.45163C6.0981 3.60753 5.81118 3.94423 5.81118 4.3591C5.81118 4.77397 6.0981 5.11067 6.45163 5.11067H14.5392L13.4438 10.252C13.3726 10.5875 13.1154 10.8226 12.8208 10.8226H6.5997C6.31124 10.8226 6.05813 10.5965 5.98077 10.2706C5.48839 8.1915 4.42883 3.71516 3.9385 1.64383C3.70948 0.672804 2.95529 0 2.09606 0H0.640449C0.286921 0 0 0.336703 0 0.751569C0 1.16643 0.286921 1.50314 0.640449 1.50314Z" fill="#06050B"/>
</svg>
