<svg width="58" height="64" viewBox="0 0 58 64" fill="none" xmlns="http://www.w3.org/2000/svg">
<path d="M55.2141 53.2463C55.1244 53.2643 56.3696 53.2284 57.0239 52.5295C58.4576 51.0063 57.7049 48.9096 57.6691 47.243L57.1494 40.8278C56.6118 34.4482 55.5545 21.5995 55.0528 15.2021L54.5331 8.80474C54.2463 4.53979 54.3539 -0.0836256 48.727 0.0239244C43.6736 -0.0299056 32.9933 0.0239244 27.8323 0.0239244L14.9657 0.203054C10.6649 0.436034 5.66527 -0.316595 2.22465 3.0703C0.378818 4.80852 -0.158712 7.63988 0.0383682 10.0591L0.450478 16.9763L1.27482 30.8284C1.54368 35.38 2.24247 47.243 2.51133 51.6335C2.86973 58.3176 4.48246 64.6613 12.6182 63.9445L16.0947 63.9087C26.0941 63.7833 40.8422 63.6219 50.8057 63.5145C51.3612 63.5324 52.9023 63.4965 53.4221 63.4965C55.3216 63.3353 56.0742 60.8085 54.5331 59.8229C54.3001 59.6616 54.0492 59.572 53.7983 59.5183C52.9203 57.565 53.2428 54.3035 55.2141 53.2463ZM52.8844 53.5868C52.7259 53.9065 52.5974 54.2367 52.4841 54.571C41.1842 54.4294 25.3712 54.5488 14.0411 54.6334C13.3819 54.6267 13.3957 55.6426 14.0352 55.639C25.2034 55.723 40.9604 55.8411 52.1943 55.7053C52.1167 56.1305 52.0622 56.5591 52.0537 56.9905L32.9778 57.2109C32.978 57.211 13.2447 57.2863 13.2463 57.2864C12.4642 57.2819 12.5017 58.4996 13.2649 58.4709C24.6559 58.3927 40.7832 58.1601 52.1607 58.4041C52.2135 58.7393 52.2843 59.0717 52.3797 59.4C43.9665 59.441 24.868 59.5349 17.5759 59.5701C14.2285 59.5111 8.73637 60.4497 9.27971 55.5741C9.44768 53.8717 11.448 53.5601 13.3035 53.4846C15.2492 53.3942 17.245 53.3746 19.2245 53.3501L31.1368 53.2952C38.459 53.2934 45.7828 53.2908 53.11 53.2036C53.0313 53.3321 52.9518 53.4616 52.8844 53.5868ZM2.04539 16.9045L1.87028 14.2008C3.74394 12.3866 6.25114 11.1559 8.88883 10.7111C8.96134 11.8045 9.03428 12.9125 9.11258 14.0561C9.228 15.6118 9.34146 17.2175 9.45419 18.857C6.83957 19.0488 4.41812 19.9648 2.3522 21.5334C2.23875 19.8009 2.1345 18.2236 2.04539 16.9045ZM2.48649 23.5903C4.46519 21.8807 6.97831 20.8312 9.57597 20.6459C9.882 25.1753 10.1867 29.9305 10.5136 34.6615C7.87571 34.7595 5.47373 35.5191 3.35441 36.9925C3.07402 32.6742 2.76188 27.82 2.48649 23.5903ZM3.85533 44.6089C3.75853 43.1719 3.64335 41.4238 3.51835 39.5101C5.44523 37.8251 8.05357 36.7299 10.6465 36.5624C10.831 39.172 11.0238 41.7592 11.2285 44.2869C9.83048 44.238 8.41727 44.4143 7.08005 44.8233C6.52664 45.0205 5.1124 45.5333 3.98386 46.1965C3.94719 45.6398 3.90581 45.1066 3.85533 44.6089ZM15.0016 1.47539C22.4383 1.22448 33.1366 1.34997 40.6809 1.24242C42.7954 1.33202 48.1714 1.0811 50.1785 1.42162C53.5833 2.15636 52.8487 6.06292 53.2428 8.9301L53.7447 15.3454C54.2284 21.725 55.1961 34.5736 55.6799 40.9531C55.7696 42.996 56.3251 48.5333 56.3072 50.4329C56.1997 51.4185 55.7143 51.742 54.8183 51.7599L31.1357 51.6954C31.1357 51.6954 19.2083 51.7334 19.2083 51.7336C17.48 51.7716 15.2807 51.6728 13.2892 51.861C12.3951 35.6382 11.0477 17.8806 9.67997 1.70282C11.4765 1.55791 13.3277 1.59826 15.0016 1.47539ZM3.33568 4.10961C4.64177 2.77111 6.3568 2.16662 8.20384 1.87572C8.46098 4.55455 8.6428 7.06224 8.81413 9.61058C6.28788 9.91374 3.82798 10.8557 1.75419 12.4085L1.59739 9.98741C1.45414 7.80114 1.72282 5.70452 3.33568 4.10961ZM53.7984 62.1168C53.6908 62.3138 50.7519 62.2779 50.7519 62.2779C40.7884 62.4393 26.1119 62.5647 16.0947 62.6901C11.8656 62.7976 6.45377 63.2635 5.25315 58.1564C4.42832 55.5015 4.27103 51.6762 4.10093 48.287C6.18034 46.7839 8.78086 46.0169 11.3484 45.7559C11.5295 47.9181 11.7215 50.0205 11.9249 52.0483C8.89928 52.6153 6.85222 54.2136 8.73405 58.6927C10.5647 61.6798 14.6553 60.9348 17.5772 61.025C25.2128 60.9865 53.4558 60.8586 53.6787 60.8576C53.8492 60.9154 53.9886 61.0126 54.0313 61.2386C54.1388 61.5433 53.9955 61.9733 53.7984 62.1168ZM41.9114 20.5322C42.0505 20.7734 41.9695 21.0814 41.7313 21.2238C40.393 22.0228 39.0456 22.9656 37.1326 22.9352C36.653 22.897 36.1332 22.722 35.7196 22.3518C34.8387 21.5079 35.2875 20.5521 33.7996 21.1338C32.0183 21.9192 28.8091 24.8898 26.7903 22.3845C26.5127 22.1247 26.4256 22.1254 26.418 22.1427C26.3728 22.142 26.2375 22.2038 26.0693 22.3973C25.2555 23.3221 23.8663 22.0344 24.7355 21.1526C25.0815 20.7917 25.6348 20.3784 26.3722 20.3691C27.1586 20.3477 27.7345 20.8757 27.9885 21.1454C28.5933 21.7675 28.6306 21.7693 29.2493 21.7145C30.8125 21.4376 32.6879 19.4384 34.7609 19.6077C35.2994 19.6697 35.9363 20.0399 36.1736 20.5867C36.3993 21.0865 36.4369 21.2872 36.5886 21.4248C37.9459 22.3105 39.7503 21.1036 41.2158 20.3456C41.4594 20.205 41.7708 20.2886 41.9114 20.5322ZM24.0332 15.901C25.0905 14.6645 25.9092 13.1871 27.7518 13.0644C29.3461 13.0621 29.3555 14.6466 29.3913 14.8079C29.4809 15.22 29.463 14.9871 29.4452 15.005C31.3984 14.9513 33.3534 13.2815 35.5038 13.5145C36.0414 13.5682 36.5101 13.9145 36.6714 14.5417C36.7547 14.9305 36.9352 15.5903 37.0177 16.0103C38.4692 16.082 40.4479 14.8437 42.0249 14.6466C42.9491 14.5185 42.7653 15.2201 42.1661 15.6171C40.9741 16.4068 37.9209 17.3042 37.1609 17.2173C36.5697 17.133 35.5179 16.9627 35.0128 15.142C32.7549 15.8946 28.5277 18.2402 27.4435 14.3532C26.7447 14.7653 25.6618 15.8639 25.0703 16.4194C24.4432 17.0467 23.4598 16.5999 24.0332 15.901ZM20.3274 18.8708L20.7632 23.7544C20.8986 24.8403 21.6835 25.7516 22.6604 26.104C23.4635 26.4368 24.4993 26.3361 25.3128 26.3858C31.1042 26.3902 39.1968 26.7727 44.9241 26.327C47.9792 26.0455 47.926 24.4141 47.731 21.8607L47.445 16.944L47.0169 12.0809C46.9048 11.0063 46.2012 9.86765 45.019 9.69407C37.6446 9.72753 30.2832 9.73186 22.9078 9.84014C21.4556 9.77483 19.5285 10.9297 19.7504 12.7637L19.8665 13.9898L20.3274 18.8708ZM22.9725 11.4103C30.2406 11.3752 37.5346 11.0412 44.7989 11.0269C45.1933 11.0715 45.5527 11.6252 45.5894 12.2239L45.8505 17.1018L46.2388 22.3234C46.2886 23.1465 46.3218 23.8451 46.1186 24.3068C45.9013 24.7026 45.9106 24.5309 45.4745 24.6141C38.5177 24.8998 30.047 25.2302 23.136 24.8541C22.5771 24.6544 22.1749 24.1359 22.1072 23.5944L21.7081 18.7484L21.3349 13.8998L21.245 12.6933C21.2204 11.7253 21.9259 11.4631 22.9725 11.4103Z" fill="black"/>
</svg>
