<svg width="33" height="40" viewBox="0 0 33 40" fill="none" xmlns="http://www.w3.org/2000/svg">
<path d="M0.0200439 7.04005C0.0200439 8.07911 0.0146534 9.08528 0.00949711 10.0581C-0.0272998 16.9547 -0.0563626 22.4018 1.95333 27.1172C3.00911 29.5943 4.5934 31.7833 6.79708 33.8092C9.08356 35.9115 12.1036 37.9029 16.0295 39.8983C16.1611 39.9651 16.3066 40 16.4543 40C16.6019 40 16.7474 39.9651 16.879 39.8983C20.805 37.9032 23.825 35.9115 26.1115 33.8092C28.3146 31.7833 29.8991 29.5943 30.9552 27.1172C32.9649 22.402 32.9358 16.9547 32.899 10.0581C32.8939 9.08528 32.8885 8.07934 32.8885 7.04005C32.8885 6.85186 32.8319 6.66802 32.726 6.51245C32.6201 6.35688 32.4698 6.23678 32.2947 6.16778L16.7977 0.0652023C16.5769 -0.0217341 16.3314 -0.0217341 16.1107 0.0652023L0.614028 6.16778C0.438902 6.23675 0.288588 6.35683 0.182649 6.5124C0.0767097 6.66797 0.0200503 6.85183 0.0200439 7.04005ZM1.88442 10.0681C1.88853 9.29294 1.89187 8.49648 1.89442 7.67872L16.454 1.94528L31.0135 7.67872C31.0151 8.4971 31.0184 9.29356 31.0235 10.0681C31.0954 23.5771 31.132 30.4218 16.454 38.009C1.7759 30.4218 1.81247 23.5771 1.88442 10.0681ZM9.31872 20.0547C9.1599 19.8669 9.08123 19.6242 9.09966 19.379C9.11809 19.1337 9.23215 18.9056 9.41725 18.7436C9.60235 18.5817 9.84367 18.499 10.0892 18.5133C10.3347 18.5277 10.5647 18.6379 10.7297 18.8203L14.7229 23.3839L24.019 14.5843C24.1996 14.4134 24.4407 14.3212 24.6892 14.328C24.9378 14.3348 25.1734 14.4401 25.3444 14.6206C25.5153 14.8012 25.6075 15.0423 25.6007 15.2908C25.5939 15.5394 25.4887 15.775 25.3081 15.946L15.3038 25.4156C15.1297 25.5804 14.8991 25.6722 14.6593 25.6722C14.6447 25.6722 14.63 25.6722 14.6153 25.6712C14.4893 25.6653 14.3657 25.634 14.2521 25.5791C14.1384 25.5243 14.037 25.4471 13.954 25.3522L9.31872 20.0547Z" fill="#06050B"/>
</svg>
