<svg width="40" height="40" viewBox="0 0 40 40" fill="none" xmlns="http://www.w3.org/2000/svg">
<path d="M39.2205 0H0.817649C0.600795 0 0.392823 0.086145 0.239484 0.239484C0.086145 0.392823 0 0.600795 0 0.817649V30.5463C0.0103339 30.7553 0.1013 30.9522 0.253778 31.0956C0.406257 31.2389 0.608374 31.3176 0.817649 31.3151H10.0784L7.76322 33.6303C7.66083 33.736 7.58922 33.8677 7.55613 34.0111C7.52304 34.1545 7.52972 34.3042 7.57544 34.4441C7.62116 34.584 7.70419 34.7088 7.81559 34.805C7.92699 34.9012 8.06252 34.9652 8.20759 34.99L11.9981 35.5499L12.5447 39.3182C12.5666 39.4651 12.629 39.603 12.7248 39.7164C12.8207 39.8298 12.9462 39.9143 13.0873 39.9604C13.2285 40.0066 13.3797 40.0125 13.524 39.9775C13.6683 39.9426 13.8001 39.8682 13.9045 39.7626L18.2638 35.4522C18.4146 35.3013 18.4994 35.0967 18.4994 34.8834C18.4994 34.67 18.4146 34.4654 18.2638 34.3146C18.1129 34.1637 17.9083 34.079 17.695 34.079C17.4816 34.079 17.277 34.1637 17.1262 34.3146L13.9045 37.5363L13.4956 34.7234C13.4595 34.5568 13.3761 34.4041 13.2556 34.2836C13.135 34.163 12.9824 34.0797 12.8158 34.0435L9.99842 33.6347L12.4958 31.1373C12.611 31.0256 12.6908 30.8824 12.7253 30.7257C12.7597 30.5689 12.7472 30.4055 12.6894 30.2558C12.6316 30.1061 12.531 29.9767 12.4002 29.8837C12.2694 29.7908 12.1141 29.7384 11.9537 29.7331H1.59086V1.58642H38.4028V29.7731H28.0978C27.939 29.77 27.7828 29.8143 27.6493 29.9003C27.5157 29.9863 27.4108 30.1101 27.3478 30.256C27.2849 30.4018 27.2669 30.5631 27.296 30.7193C27.325 30.8755 27.4 31.0195 27.5112 31.1329L30.053 33.6303L27.1913 34.0391C27.0247 34.0753 26.872 34.1586 26.7514 34.2791C26.6309 34.3997 26.5476 34.5524 26.5114 34.719L26.1026 37.5319L22.8808 34.3101C22.73 34.1593 22.5254 34.0745 22.312 34.0745C22.0987 34.0745 21.8941 34.1593 21.7432 34.3101C21.5924 34.461 21.5076 34.6656 21.5076 34.8789C21.5076 35.0923 21.5924 35.2969 21.7432 35.4477L26.1026 39.7582C26.2083 39.8606 26.34 39.9322 26.4834 39.9653C26.6268 39.9984 26.7765 39.9917 26.9164 39.946C27.0563 39.9002 27.1811 39.8172 27.2773 39.7058C27.3735 39.5944 27.4375 39.4589 27.4623 39.3138L27.9956 35.5499L31.8083 35.0034C31.9534 34.9785 32.0889 34.9145 32.2003 34.8183C32.3117 34.7221 32.3948 34.5974 32.4405 34.4575C32.4862 34.3176 32.4929 34.1678 32.4598 34.0244C32.4267 33.881 32.3551 33.7493 32.2527 33.6436L29.9864 31.3728H39.2205C39.4253 31.3671 39.62 31.2826 39.764 31.1369C39.9081 30.9912 39.9903 30.7956 39.9937 30.5907V0.817649C39.9962 0.60764 39.9169 0.404891 39.7726 0.252293C39.6283 0.0996946 39.4303 0.00921682 39.2205 0ZM24.5561 31.5861C24.799 31.6416 25.0509 31.6446 25.2951 31.595C25.5392 31.5453 25.7699 31.4441 25.9718 31.2982C26.1737 31.1522 26.3421 30.9648 26.4658 30.7486C26.5895 30.5323 26.6657 30.2922 26.6891 30.0442C26.8713 27.729 26.5958 28.1378 28.7332 27.2757C30.2752 26.5514 29.7286 25.1871 29.0932 24.1651C28.2044 22.7164 28.6488 22.7164 29.4576 21.3966C29.5974 21.1925 29.6889 20.9592 29.7252 20.7145C29.7615 20.4698 29.7416 20.22 29.6671 19.9841C29.5926 19.7482 29.4654 19.5323 29.2952 19.3528C29.1249 19.1734 28.916 19.035 28.6844 18.9481C26.6447 18.086 26.8224 18.4504 26.6891 16.1352C26.6684 15.8875 26.5935 15.6474 26.4697 15.4318C26.346 15.2161 26.1764 15.0304 25.9729 14.8875C25.7695 14.7447 25.5371 14.6483 25.2923 14.6051C25.0475 14.5619 24.7962 14.573 24.5561 14.6377C22.4231 15.1354 22.7786 15.3176 21.2855 13.5934C21.129 13.4039 20.9333 13.2506 20.7118 13.1439C20.4903 13.0373 20.2484 12.9799 20.0026 12.9757C19.7569 12.9714 19.5131 13.0205 19.2881 13.1195C19.0631 13.2184 18.8622 13.365 18.6993 13.549C17.2462 15.2731 17.7439 15.1798 15.4287 14.6377C15.1853 14.5735 14.9306 14.564 14.6831 14.6101C14.4356 14.6562 14.2014 14.7566 13.9974 14.904C13.7933 15.0515 13.6246 15.2425 13.5032 15.463C13.3819 15.6836 13.311 15.9284 13.2957 16.1797C13.1624 18.4015 13.389 18.0416 11.3449 18.9037C11.1125 18.9931 10.903 19.133 10.7314 19.3133C10.5597 19.4936 10.4303 19.7098 10.3525 19.9462C10.2747 20.1827 10.2504 20.4335 10.2814 20.6805C10.3124 20.9275 10.3978 21.1645 10.5317 21.3744C11.6648 23.2363 11.7137 22.8275 10.5317 24.7783C10.3998 24.9886 10.3148 25.2249 10.2827 25.471C10.2505 25.7171 10.2718 25.9673 10.3453 26.2044C10.4187 26.4415 10.5424 26.66 10.708 26.8449C10.8737 27.0298 11.0772 27.1767 11.3049 27.2757C13.3446 28.1378 13.1668 27.6845 13.3001 30.0442C13.3236 30.2922 13.3997 30.5323 13.5234 30.7486C13.6471 30.9648 13.8155 31.1522 14.0174 31.2982C14.2193 31.4441 14.4501 31.5453 14.6942 31.595C14.9383 31.6446 15.1902 31.6416 15.4331 31.5861C17.615 31.044 17.2106 30.8618 18.7037 32.6304C18.8576 32.8263 19.0539 32.9847 19.2779 33.0936C19.5019 33.2025 19.7478 33.2591 19.9968 33.2591C20.2459 33.2591 20.4918 33.2025 20.7158 33.0936C20.9398 32.9847 21.1361 32.8263 21.29 32.6304C22.7875 30.9062 22.3343 31.044 24.5606 31.5861H24.5561ZM20.5168 31.1062C19.7924 31.7417 20.0191 31.7417 19.3836 30.9685C18.566 29.9731 18.1127 29.5642 17.3884 29.5642C16.0552 29.5642 14.9354 30.6974 14.8465 29.2932C14.6155 24.5695 10.8472 27.2935 12.3492 24.9338C13.3312 23.2363 13.3312 22.9208 12.2558 21.1967C11.6648 20.2413 11.7137 20.4679 12.7002 20.0591C14.5621 19.2903 14.7443 19.0637 14.8377 16.9484C14.8821 15.993 14.8821 16.1308 15.7886 16.3574C17.7394 16.8551 18.1038 16.8018 19.3747 15.2687C20.1035 14.38 19.8724 14.38 20.6012 15.2198C21.8721 16.7662 22.1876 16.8551 24.2317 16.3574C25.2316 16.0864 25.0938 16.2197 25.1205 17.0818C25.2138 19.0326 25.396 19.3036 27.3424 20.0768C28.2978 20.4857 28.2311 20.3035 27.6623 21.2589C26.618 22.8942 26.618 23.2097 27.7067 24.9783C28.2978 25.9337 28.2978 25.7515 27.2046 26.1603C25.4804 26.8402 25.2538 27.1602 25.116 29.1554C25.0716 30.2886 25.0716 30.1064 24.0273 29.8353C22.121 29.3376 21.8499 29.5198 20.4723 31.1062H20.5168ZM25.4049 22.392C25.2671 21.3477 23.6807 21.5299 23.814 22.5742C23.9276 23.2343 23.8612 23.9127 23.622 24.5383C23.3827 25.1639 22.9793 25.7134 22.4542 26.1292C22.0533 26.4504 21.5922 26.6882 21.098 26.8288C20.6039 26.9693 20.0866 27.0097 19.5767 26.9476C19.0667 26.8855 18.5743 26.7222 18.1283 26.4672C17.6823 26.2122 17.2917 25.8707 16.9795 25.4627C15.5264 23.8718 16.0241 21.33 17.615 19.9968C18.7037 19.1348 19.8369 19.1081 21.17 19.317C22.1698 19.4991 22.4454 17.9083 21.4011 17.7261C19.6236 17.455 18.086 17.5928 16.6329 18.7704C14.4111 20.5879 13.7267 24.2628 15.7442 26.4403C17.5217 28.8488 21.1878 29.2087 23.503 27.3024C24.2332 26.7212 24.7981 25.9585 25.1412 25.0906C25.4843 24.2227 25.5936 23.2799 25.4582 22.3565L25.4049 22.392ZM12.518 9.09634C12.3179 9.11133 12.1309 9.20141 11.9944 9.34851C11.8579 9.49562 11.782 9.68888 11.782 9.88955C11.782 10.0902 11.8579 10.2835 11.9944 10.4306C12.1309 10.5777 12.3179 10.6678 12.518 10.6828H27.5112C27.7113 10.6678 27.8984 10.5777 28.0349 10.4306C28.1714 10.2835 28.2472 10.0902 28.2472 9.88955C28.2472 9.68888 28.1714 9.49562 28.0349 9.34851C27.8984 9.20141 27.7113 9.11133 27.5112 9.09634H12.518ZM8.96303 5.91907H31.004C31.1527 6.63344 31.507 7.28874 32.0234 7.80431C32.5398 8.31989 33.1956 8.67322 33.9102 8.82083V22.8764C33.0601 23.0588 32.2986 23.528 31.7533 24.2051C31.208 24.8823 30.9121 25.7264 30.9151 26.5958C30.9301 26.7959 31.0202 26.983 31.1673 27.1195C31.3144 27.256 31.5077 27.3318 31.7083 27.3318C31.909 27.3318 32.1023 27.256 32.2494 27.1195C32.3965 26.983 32.4866 26.7959 32.5015 26.5958C32.5015 26.0065 32.7356 25.4414 33.1523 25.0247C33.569 24.608 34.1341 24.3739 34.7234 24.3739C34.9264 24.3673 35.1192 24.2837 35.2628 24.1401C35.4064 23.9965 35.49 23.8037 35.4966 23.6007V8.12316C35.4991 7.91316 35.4199 7.71041 35.2756 7.55781C35.1312 7.40521 34.9332 7.31473 34.7234 7.30552C34.1418 7.30563 33.5832 7.07765 33.1678 6.67053C32.7524 6.26341 32.5132 5.70962 32.5015 5.12808C32.5052 4.91849 32.4269 4.71574 32.2833 4.56302C32.1397 4.41029 31.9422 4.31966 31.7328 4.31043H8.30536C8.19819 4.31043 8.09208 4.33161 7.99313 4.37276C7.89417 4.4139 7.80433 4.4742 7.72876 4.55018C7.65319 4.62617 7.59338 4.71634 7.55277 4.81552C7.51217 4.91469 7.49157 5.02092 7.49215 5.12808C7.48095 5.69901 7.25036 6.24371 6.84823 6.64915C6.44611 7.05459 5.90331 7.28964 5.33249 7.30552C5.11564 7.30552 4.90767 7.39166 4.75433 7.545C4.60099 7.69834 4.51484 7.90631 4.51484 8.12316V23.6007C4.52406 23.8105 4.61454 24.0086 4.76714 24.1529C4.91973 24.2972 5.12248 24.3764 5.33249 24.3739C5.91481 24.3844 6.46973 24.6231 6.8778 25.0387C7.28587 25.4542 7.51447 26.0134 7.51437 26.5958C7.52936 26.7959 7.61943 26.983 7.76654 27.1195C7.91364 27.256 8.1069 27.3318 8.30758 27.3318C8.50826 27.3318 8.70152 27.256 8.84862 27.1195C8.99572 26.983 9.0858 26.7959 9.10079 26.5958C9.10384 25.7264 8.80791 24.8823 8.2626 24.2051C7.7173 23.528 6.95578 23.0588 6.1057 22.8764V8.80306C6.8203 8.65545 7.47615 8.30211 7.99251 7.78654C8.50887 7.27097 8.86321 6.61566 9.01191 5.90129L8.96303 5.91907Z" fill="#06050B"/>
</svg>
