<svg width="32" height="40" viewBox="0 0 32 40" fill="none" xmlns="http://www.w3.org/2000/svg">
<path fill-rule="evenodd" clip-rule="evenodd" d="M15.545 17.4139C15.545 17.2909 15.4958 17.1679 15.3974 17.0695C15.2006 16.8727 14.5609 16.8727 14.3887 17.0695C14.2902 17.1679 14.2411 17.2909 14.2411 17.4139V18.8163L13.6998 19.0378C13.2323 19.21 12.8141 19.5545 12.4942 19.9482C11.8299 20.8585 11.8053 22.0887 12.3712 23.0236C12.6419 23.4665 13.0356 23.8109 13.5031 24.0324L15.7174 25.1396C16.2095 25.3856 16.5047 25.9023 16.5047 26.4436C16.5047 26.8373 16.3571 27.2063 16.0864 27.477C15.5943 27.9691 14.5117 28.0675 13.9213 27.6738C13.6506 27.5016 13.5276 27.2802 13.38 27.0095C13.3308 26.9357 13.3062 26.8865 13.2324 26.8373C13.0848 26.7388 12.5435 26.7388 12.3712 26.8127C12.1744 26.9111 12.076 27.1571 12.1498 27.3785C12.2974 27.7722 12.5188 28.1412 12.8141 28.4365C13.0602 28.6826 13.3554 28.8548 13.6999 28.9778L14.2412 29.1992V30.6016C14.2412 30.7246 14.2904 30.8477 14.3888 30.9461C14.5856 31.1429 15.2007 31.1429 15.3975 30.9461C15.496 30.8476 15.5451 30.7246 15.5451 30.6016V29.1992L16.0864 28.9778C16.5539 28.8056 16.9721 28.4857 17.2919 28.0674C17.9317 27.1816 17.9809 25.9268 17.3904 24.9919C17.1443 24.549 16.7507 24.2046 16.2832 23.9832L14.0689 22.876C13.1831 22.4331 12.9863 21.2521 13.6998 20.5386C14.4134 19.825 15.9388 19.9481 16.357 20.9568C16.4063 21.0553 16.4555 21.129 16.5292 21.1783C16.7015 21.2767 17.2428 21.2767 17.415 21.2029C17.6118 21.1044 17.7103 20.8585 17.6364 20.637C17.4888 20.2434 17.2674 19.8743 16.9721 19.579C16.7015 19.3576 16.4063 19.1608 16.0864 19.0378L15.5451 18.8163L15.545 17.4139Z" fill="#06050B"/>
<path fill-rule="evenodd" clip-rule="evenodd" d="M25.7562 28.6329C26.642 28.6329 27.4785 28.8297 28.2166 29.1988C29.2992 23.8597 27.011 16.9459 20.5647 10.2044C20.2694 10.3274 19.9496 10.4012 19.6052 10.4012H10.1818C9.83741 10.4012 9.4929 10.3274 9.1977 10.2044C-4.03938 24.0073 0.315523 38.6222 14.8812 38.6222C17.2432 38.6222 19.3099 38.2285 21.0814 37.5396C20.4663 36.6292 20.0973 35.5221 20.0973 34.3165C20.0972 31.1917 22.6315 28.6329 25.7562 28.6329ZM29.3976 29.9615C30.6524 30.9949 31.4397 32.5696 31.4397 34.3165C31.4397 37.4412 28.9055 40 25.7562 40C24.3538 40 23.0497 39.4833 22.041 38.5976C19.802 39.5817 17.3416 39.9754 14.8812 39.9754C11.4366 39.9754 7.9182 39.1881 5.08877 37.1213C2.55455 35.2514 0.906083 32.6188 0.290987 29.5187C-0.39795 26.1233 0.192533 22.5803 1.47195 19.3818C2.99743 15.5927 5.38398 12.2466 8.16426 9.31869C7.47532 8.2361 7.74599 6.78447 8.82858 6.04638C8.41031 4.86541 7.96743 3.68437 7.52455 2.5034C7.3031 1.93753 7.47532 1.27321 7.96743 0.879552C8.50869 0.412057 9.32069 0.43667 9.83733 0.904166C10.3294 1.32243 10.7723 1.56849 11.3382 1.34705C13.4788 -0.449016 16.3082 -0.449016 18.4488 1.34705C19.0146 1.56849 19.4575 1.32243 19.925 0.904166C20.4663 0.43667 21.2783 0.412057 21.8195 0.879552C22.287 1.27321 22.4592 1.93753 22.2624 2.52801L20.9338 6.04638C22.0164 6.78447 22.3116 8.23618 21.5981 9.31869C24.403 12.2466 26.7895 15.5927 28.2904 19.3818C29.619 22.7033 30.2341 26.4186 29.3976 29.9615ZM10.1818 5.62811H19.6052L20.983 2.03591C21.0076 1.98668 20.983 1.93745 20.9584 1.91292C20.9091 1.8883 20.8599 1.8883 20.8354 1.91292C19.8266 2.8233 18.7933 3.02012 17.7107 2.5034C16.013 0.953314 13.774 0.953314 12.0764 2.5034C10.9938 3.02012 9.9604 2.82322 8.95165 1.91292C8.90242 1.8883 8.85319 1.8883 8.82866 1.91292C8.80404 1.93753 8.77943 1.98676 8.80404 2.03591C8.95157 2.42956 10.0342 5.62811 10.1818 5.62811ZM10.1818 6.98129H19.6052C20.9585 6.98129 20.9585 9.04802 19.6052 9.04802H10.1818C8.80397 9.04802 8.80397 6.98129 10.1818 6.98129ZM25.7562 29.9862C28.1429 29.9862 30.0865 31.9299 30.0865 34.3165C30.0865 36.703 28.1428 38.6467 25.7562 38.6467C23.3697 38.6467 21.426 36.703 21.426 34.3165C21.426 31.9299 23.3696 29.9862 25.7562 29.9862Z" fill="#06050B"/>
<path fill-rule="evenodd" clip-rule="evenodd" d="M28.1918 34.3151C28.1918 34.7088 27.8474 35.0287 27.4537 35.0287H24.0829C23.6646 35.0287 23.3447 34.7088 23.3447 34.3151C23.3447 33.9215 23.6645 33.6016 24.0829 33.6016H27.4537C27.8474 33.6016 28.1918 33.9215 28.1918 34.3151Z" fill="#06050B"/>
</svg>
