<svg width="24" height="24" viewBox="0 0 24 24" fill="none" xmlns="http://www.w3.org/2000/svg">
<path d="M12 19C15.866 19 19 15.866 19 12C19 8.13401 15.866 5 12 5C8.13401 5 5 8.13401 5 12C5 15.866 8.13401 19 12 19Z" stroke="white" stroke-width="2"/>
<path d="M5.96499 3.13672C5.28659 3.31841 4.66799 3.67551 4.17138 4.17212C3.67478 4.66872 3.31768 5.28732 3.13599 5.96572M18.035 3.13672C18.7134 3.31841 19.332 3.67551 19.8286 4.17212C20.3252 4.66872 20.6823 5.28732 20.864 5.96572M12 8.00072V11.7507C12 11.8887 12.112 12.0007 12.25 12.0007H15" stroke="white" stroke-width="2" stroke-linecap="round"/>
</svg>
