<svg width="52" height="40" viewBox="0 0 52 40" fill="none" xmlns="http://www.w3.org/2000/svg">
<path d="M20.7686 39.883C31.7335 39.883 40.6222 30.9942 40.6222 20.0294C40.6222 9.06454 31.7335 0.175781 20.7686 0.175781C9.8038 0.175781 0.915039 9.06454 0.915039 20.0294C0.915039 30.9942 9.8038 39.883 20.7686 39.883Z" fill="url(#paint0_radial_732_19770)"/>
<path d="M11.5819 20.0294C11.5819 11.0798 17.5053 3.51375 25.6438 1.03516C23.8123 0.477369 21.8681 0.175781 19.8536 0.175781C8.88954 0.175781 0 9.06386 0 20.0294C0 30.9949 8.88807 39.883 19.8536 39.883C21.8681 39.883 23.8123 39.5814 25.6438 39.0236C17.5038 36.545 11.5819 28.9804 11.5819 20.0294Z" fill="#5EC7FF"/>
<path opacity="0.2" d="M31.3886 39.8537C42.3535 39.8537 51.2422 30.9649 51.2422 20.0001C51.2422 9.03524 42.3535 0.146484 31.3886 0.146484C20.4238 0.146484 11.535 9.03524 11.535 20.0001C11.535 30.9649 20.4238 39.8537 31.3886 39.8537Z" fill="white"/>
<path d="M31.3884 40C20.36 40 11.3884 31.0285 11.3884 20C11.3884 8.97152 20.36 0 31.3884 0C42.4154 0 51.3884 8.97152 51.3884 20C51.387 31.0285 42.4154 40 31.3884 40ZM31.3884 0.29427C20.5225 0.29427 11.6812 9.13403 11.6812 20.0015C11.6812 30.8674 20.521 39.7087 31.3884 39.7087C42.2544 39.7087 51.0956 30.8689 51.0956 20.0015C51.0942 9.13403 42.2544 0.29427 31.3884 0.29427Z" fill="white"/>
<path d="M28.7737 27.8418C28.0519 27.8418 27.4663 27.2562 27.4663 26.5344C27.4663 25.8127 28.0519 25.227 28.7737 25.227H39.2312C39.9529 25.227 40.5386 25.8127 40.5386 26.5344C40.5386 27.2562 39.9529 27.8418 39.2312 27.8418H28.7737ZM22.2383 26.5359C22.2383 25.8141 22.8239 25.2285 23.5456 25.2285C24.2674 25.2285 24.853 25.8141 24.853 26.5359C24.853 27.2577 24.2674 27.8432 23.5456 27.8432C22.8224 27.8418 22.2383 27.2577 22.2383 26.5359ZM28.7737 21.3064C28.0519 21.3064 27.4663 20.7208 27.4663 19.999C27.4663 19.2773 28.0519 18.6916 28.7737 18.6916H39.2312C39.9529 18.6916 40.5386 19.2773 40.5386 19.999C40.5386 20.7208 39.9529 21.3064 39.2312 21.3064H28.7737ZM22.2383 19.999C22.2383 19.2773 22.8239 18.6916 23.5456 18.6916C24.2674 18.6916 24.853 19.2773 24.853 19.999C24.853 20.7208 24.2674 21.3064 23.5456 21.3064C22.8224 21.3064 22.2383 20.7208 22.2383 19.999ZM28.7737 14.771C28.0519 14.771 27.4663 14.1854 27.4663 13.4636C27.4663 12.7419 28.0519 12.1562 28.7737 12.1562H39.2312C39.9529 12.1562 40.5386 12.7419 40.5386 13.4636C40.5386 14.1854 39.9529 14.771 39.2312 14.771H28.7737ZM22.2383 13.4636C22.2383 12.7419 22.8239 12.1562 23.5456 12.1562C24.2674 12.1562 24.853 12.7419 24.853 13.4636C24.853 14.1854 24.2674 14.771 23.5456 14.771C22.8224 14.771 22.2383 14.1854 22.2383 13.4636Z" fill="white"/>
<defs>
<radialGradient id="paint0_radial_732_19770" cx="0" cy="0" r="1" gradientUnits="userSpaceOnUse" gradientTransform="translate(20.7684 20.0297) scale(19.853)">
<stop stop-color="#5EC7FF"/>
<stop offset="0.2581" stop-color="#61C8FF"/>
<stop offset="0.4439" stop-color="#6ACBFF"/>
<stop offset="0.6069" stop-color="#7AD1FF"/>
<stop offset="0.757" stop-color="#90D9FF"/>
<stop offset="0.8968" stop-color="#ADE3FF"/>
<stop offset="1" stop-color="#C7ECFF"/>
</radialGradient>
</defs>
</svg>
