<svg width="23" height="20" viewBox="0 0 23 20" fill="none" xmlns="http://www.w3.org/2000/svg">
<path fill-rule="evenodd" clip-rule="evenodd" d="M0.71875 2.84224H11.4296C11.3828 2.62328 11.3576 2.39685 11.3565 2.16507L11.3566 2.14568C11.3569 1.91105 11.3819 1.68186 11.429 1.46031H0.71875C0.321686 1.46031 0 1.76953 0 2.1513C0 2.53306 0.321641 2.84232 0.71875 2.84224ZM10.3061 9.99799V10.0066C10.3024 11.1893 9.29856 12.1513 8.06887 12.1513C6.8403 12.1513 5.83638 11.1903 5.83113 10.0086L5.83117 9.99648C5.8327 8.81174 6.83603 7.84873 8.06887 7.84873C9.30067 7.84868 10.3035 8.81127 10.3061 9.99497V9.99799ZM22.2812 9.30904H11.5709C11.6179 9.52981 11.6429 9.75818 11.6435 9.99199V9.99678V10.0106C11.6428 10.2435 11.6177 10.4711 11.5707 10.691L22.2812 10.691C22.6784 10.691 23 10.3818 23 10.0001C23 9.61825 22.6784 9.30904 22.2812 9.30904ZM4.56631 9.30904H0.71875C0.321686 9.30904 0 9.61829 0 10.0001C0 10.3818 0.321641 10.691 0.71875 10.691L4.56689 10.691C4.52004 10.472 4.49484 10.2456 4.4938 10.0138L4.49385 9.99441C4.49416 9.75973 4.51914 9.53058 4.56631 9.30904ZM14.9311 20C13.6993 20 12.6965 19.0375 12.6939 17.8538V17.8507C12.6939 17.8478 12.6939 17.8452 12.6939 17.8422C12.6976 16.6594 13.7014 15.6975 14.9311 15.6975C16.1597 15.6975 17.1636 16.6585 17.1688 17.8402L17.1689 17.8523C17.1673 19.0369 16.1639 20 14.9311 20ZM22.2812 17.1578H18.4336C18.4806 17.3785 18.5057 17.6069 18.5062 17.8407V17.8455V17.8592C18.5054 18.0922 18.4803 18.3197 18.4333 18.5397H22.2812C22.6784 18.5397 23 18.2305 23 17.8487C23 17.467 22.6784 17.1578 22.2812 17.1578ZM11.429 17.1578H0.71875C0.321686 17.1578 0 17.467 0 17.8488C0 18.2306 0.321641 18.5398 0.71875 18.5398H11.4296C11.3828 18.3208 11.3576 18.0943 11.3565 17.8625L11.3566 17.8431C11.3569 17.6085 11.3819 17.3793 11.429 17.1578ZM12.6939 2.15333C12.6939 2.15022 12.6939 2.14775 12.6939 2.14469C12.6976 0.961981 13.7014 1.45541e-09 14.9311 1.45541e-09C16.1597 -4.31851e-05 17.1636 0.96103 17.1688 2.1427L17.1689 2.15479C17.1667 3.33901 16.1639 4.30259 14.9311 4.30259C13.6993 4.30259 12.6965 3.34001 12.6939 2.15635V2.15333ZM18.4334 2.84232L22.2812 2.84224C22.6784 2.84224 23 2.53306 23 2.1513C23 1.76948 22.6784 1.46031 22.2812 1.46031H18.4336C18.4806 1.68108 18.5057 1.90945 18.5062 2.14322V2.14801V2.16179C18.5055 2.39478 18.4804 2.62229 18.4334 2.84232Z" fill="url(#paint0_linear_732_20264)"/>
<defs>
<linearGradient id="paint0_linear_732_20264" x1="0.732483" y1="16" x2="29.6268" y2="6.73936" gradientUnits="userSpaceOnUse">
<stop stop-color="#6511D9"/>
<stop offset="1" stop-color="#FF51BF"/>
</linearGradient>
</defs>
</svg>
