<svg width="20" height="20" viewBox="0 0 20 20" fill="none" xmlns="http://www.w3.org/2000/svg">
<path d="M9.99994 5.68768C10.2017 5.68768 10.3952 5.60752 10.5379 5.46484C10.6806 5.32216 10.7608 5.12863 10.7608 4.92685C10.7608 4.72506 10.6806 4.53154 10.5379 4.38886C10.3952 4.24617 10.2017 4.16602 9.99994 4.16602C9.79815 4.16602 9.60463 4.24617 9.46195 4.38886C9.31926 4.53154 9.2391 4.72506 9.2391 4.92685C9.2391 5.12863 9.31926 5.32216 9.46195 5.46484C9.60463 5.60752 9.79815 5.68768 9.99994 5.68768ZM15.0733 5.68768C15.1732 5.68768 15.2721 5.668 15.3644 5.62977C15.4567 5.59153 15.5406 5.53549 15.6113 5.46484C15.6819 5.39419 15.738 5.31032 15.7762 5.21801C15.8144 5.1257 15.8341 5.02676 15.8341 4.92685C15.8341 4.82694 15.8144 4.728 15.7762 4.63569C15.738 4.54338 15.6819 4.45951 15.6113 4.38886C15.5406 4.31821 15.4567 4.26217 15.3644 4.22393C15.2721 4.1857 15.1732 4.16602 15.0733 4.16602C14.8715 4.16602 14.678 4.24617 14.5353 4.38886C14.3926 4.53154 14.3124 4.72506 14.3124 4.92685C14.3124 5.12863 14.3926 5.32216 14.5353 5.46484C14.678 5.60752 14.8715 5.68768 15.0733 5.68768ZM4.9266 5.68768C5.02652 5.68768 5.12545 5.668 5.21776 5.62977C5.31007 5.59153 5.39395 5.53549 5.4646 5.46484C5.53525 5.39419 5.59129 5.31032 5.62952 5.21801C5.66776 5.1257 5.68744 5.02676 5.68744 4.92685C5.68744 4.82694 5.66776 4.728 5.62952 4.63569C5.59129 4.54338 5.53525 4.45951 5.4646 4.38886C5.39395 4.31821 5.31007 4.26217 5.21776 4.22393C5.12545 4.1857 5.02652 4.16602 4.9266 4.16602C4.72482 4.16602 4.5313 4.24617 4.38861 4.38886C4.24593 4.53154 4.16577 4.72506 4.16577 4.92685C4.16577 5.12863 4.24593 5.32216 4.38861 5.46484C4.5313 5.60752 4.72482 5.68768 4.9266 5.68768ZM9.99994 10.7602C10.2017 10.7602 10.3952 10.68 10.5379 10.5373C10.6806 10.3947 10.7608 10.2011 10.7608 9.99935C10.7608 9.79756 10.6806 9.60404 10.5379 9.46136C10.3952 9.31867 10.2017 9.23852 9.99994 9.23852C9.79815 9.23852 9.60463 9.31867 9.46195 9.46136C9.31926 9.60404 9.2391 9.79756 9.2391 9.99935C9.2391 10.2011 9.31926 10.3947 9.46195 10.5373C9.60463 10.68 9.79815 10.7602 9.99994 10.7602ZM15.0733 10.7602C15.2751 10.7602 15.4686 10.68 15.6113 10.5373C15.7539 10.3947 15.8341 10.2011 15.8341 9.99935C15.8341 9.79756 15.7539 9.60404 15.6113 9.46136C15.4686 9.31867 15.2751 9.23852 15.0733 9.23852C14.8715 9.23852 14.678 9.31867 14.5353 9.46136C14.3926 9.60404 14.3124 9.79756 14.3124 9.99935C14.3124 10.2011 14.3926 10.3947 14.5353 10.5373C14.678 10.68 14.8715 10.7602 15.0733 10.7602ZM4.9266 10.7602C5.12839 10.7602 5.32191 10.68 5.4646 10.5373C5.60728 10.3947 5.68744 10.2011 5.68744 9.99935C5.68744 9.79756 5.60728 9.60404 5.4646 9.46136C5.32191 9.31867 5.12839 9.23852 4.9266 9.23852C4.72482 9.23852 4.5313 9.31867 4.38861 9.46136C4.24593 9.60404 4.16577 9.79756 4.16577 9.99935C4.16577 10.2011 4.24593 10.3947 4.38861 10.5373C4.5313 10.68 4.72482 10.7602 4.9266 10.7602ZM9.99994 15.8327C10.2017 15.8327 10.3952 15.7525 10.5379 15.6098C10.6806 15.4672 10.7608 15.2736 10.7608 15.0718C10.7608 14.8701 10.6806 14.6765 10.5379 14.5339C10.3952 14.3912 10.2017 14.311 9.99994 14.311C9.79815 14.311 9.60463 14.3912 9.46195 14.5339C9.31926 14.6765 9.2391 14.8701 9.2391 15.0718C9.2391 15.2736 9.31926 15.4672 9.46195 15.6098C9.60463 15.7525 9.79815 15.8327 9.99994 15.8327ZM15.0733 15.8327C15.2751 15.8327 15.4686 15.7525 15.6113 15.6098C15.7539 15.4672 15.8341 15.2736 15.8341 15.0718C15.8341 14.8701 15.7539 14.6765 15.6113 14.5339C15.4686 14.3912 15.2751 14.311 15.0733 14.311C14.8715 14.311 14.678 14.3912 14.5353 14.5339C14.3926 14.6765 14.3124 14.8701 14.3124 15.0718C14.3124 15.2736 14.3926 15.4672 14.5353 15.6098C14.678 15.7525 14.8715 15.8327 15.0733 15.8327ZM4.9266 15.8327C5.12839 15.8327 5.32191 15.7525 5.4646 15.6098C5.60728 15.4672 5.68744 15.2736 5.68744 15.0718C5.68744 14.8701 5.60728 14.6765 5.4646 14.5339C5.32191 14.3912 5.12839 14.311 4.9266 14.311C4.72482 14.311 4.5313 14.3912 4.38861 14.5339C4.24593 14.6765 4.16577 14.8701 4.16577 15.0718C4.16577 15.2736 4.24593 15.4672 4.38861 15.6098C4.5313 15.7525 4.72482 15.8327 4.9266 15.8327Z" stroke="#06050B" stroke-width="1.5" stroke-linecap="round" stroke-linejoin="round"/>
</svg>
