<svg width="20" height="20" viewBox="0 0 20 20" fill="none" xmlns="http://www.w3.org/2000/svg">
<path d="M3.91286 15.0694C2.63571 14.9494 1.56286 14.0151 1.38571 12.7466C0.958676 9.71356 0.963485 6.63535 1.4 3.6037C1.57143 2.41799 2.54 1.52227 3.73143 1.39799C5.81384 1.18011 7.90622 1.07139 10 1.07227C12.1443 1.07227 14.2114 1.1937 16.2257 1.40084C16.8149 1.4566 17.3684 1.70805 17.7979 2.11508C18.2275 2.52211 18.5083 3.06127 18.5957 3.64656C18.815 5.17539 18.9262 6.71779 18.9286 8.26227C18.9286 9.82798 18.7957 11.3494 18.5871 12.828C18.5001 13.4245 18.2155 13.9747 17.7788 14.3903C17.3421 14.806 16.7787 15.0632 16.1786 15.1208C14.0752 15.3402 11.9619 15.4509 9.84714 15.4523C8.34857 17.1751 7.2 18.028 5.19286 18.9294V15.1866L4.22143 15.098L3.91286 15.0694Z" stroke="white" stroke-width="1.5" stroke-linecap="round" stroke-linejoin="round"/>
<path d="M10 8.89765C10 8.41765 10.3914 8.12337 11.08 7.66337C11.72 7.2348 12.0571 6.68194 11.9071 5.92765C11.8271 5.55289 11.6403 5.20929 11.3693 4.93831C11.0984 4.66733 10.7548 4.48056 10.38 4.40051C10.0986 4.34799 9.8091 4.35765 9.53182 4.42883C9.25454 4.5 8.99619 4.63097 8.77487 4.81254C8.55355 4.99411 8.37463 5.2219 8.25065 5.47993C8.12666 5.73795 8.06062 6.01998 8.05714 6.30622M10 12.2234V11.8662" stroke="white" stroke-width="1.5" stroke-linecap="round" stroke-linejoin="round"/>
</svg>
