<svg width="24" height="24" viewBox="0 0 24 24" fill="none" xmlns="http://www.w3.org/2000/svg">
<g clip-path="url(#clip0_732_19428)">
<path d="M17.5034 0H6.49657C2.9143 0 0 2.9143 0 6.49657V17.5036C0 21.0857 2.9143 24 6.49657 24H17.5036C21.0857 24 24 21.0857 24 17.5036V6.49657C24 2.9143 21.0857 0 17.5034 0ZM12 18.5623C8.38145 18.5623 5.43767 15.6185 5.43767 12C5.43767 8.38145 8.38145 5.43767 12 5.43767C15.6185 5.43767 18.5623 8.38145 18.5623 12C18.5623 15.6185 15.6185 18.5623 12 18.5623ZM18.7192 6.98528C17.6499 6.98528 16.7801 6.11553 16.7801 5.04619C16.7801 3.97686 17.6499 3.10693 18.7192 3.10693C19.7885 3.10693 20.6585 3.97686 20.6585 5.04619C20.6585 6.11553 19.7885 6.98528 18.7192 6.98528Z" fill="white"/>
<path d="M11.9999 6.84375C9.15741 6.84375 6.8446 9.15637 6.8446 11.9991C6.8446 14.8416 9.15741 17.1544 11.9999 17.1544C14.8426 17.1544 17.1553 14.8416 17.1553 11.9991C17.1553 9.15637 14.8426 6.84375 11.9999 6.84375Z" fill="white"/>
<path d="M18.7192 4.51367C18.4259 4.51367 18.1871 4.75244 18.1871 5.04578C18.1871 5.33911 18.4259 5.57788 18.7192 5.57788C19.0128 5.57788 19.2515 5.33929 19.2515 5.04578C19.2515 4.75226 19.0128 4.51367 18.7192 4.51367Z" fill="white"/>
</g>
<defs>
<clipPath id="clip0_732_19428">
<rect width="24" height="24" fill="white"/>
</clipPath>
</defs>
</svg>
