<svg width="44" height="48" viewBox="0 0 44 48" fill="none" xmlns="http://www.w3.org/2000/svg">
<path d="M3.67671 48H24.3388C24.8075 48 25.1873 47.6202 25.1873 47.1515C25.1873 46.6829 24.8075 46.3031 24.3388 46.3031H3.67671C2.5852 46.3031 1.69697 45.4149 1.69697 44.3233V6.9517C1.69697 5.86019 2.5852 4.97196 3.67671 4.97196H8.63459C9.00622 6.83343 10.765 8.26427 12.6645 8.24124H21.0701C22.9703 8.27518 24.7274 6.83648 25.1006 4.97196H30.0579C31.1494 4.97196 32.0377 5.86019 32.0377 6.9517V20.7281C32.0377 21.1968 32.4174 21.5766 32.8861 21.5766C33.3548 21.5766 33.7346 21.1968 33.7346 20.7281V6.9517C33.7346 4.92445 32.0852 3.27505 30.0579 3.27505H25.0993C24.7075 1.4072 23.0502 0 21.0702 0H12.6645C11.5664 0 10.5317 0.429772 9.75122 1.21001C9.17805 1.78318 8.79647 2.49741 8.63504 3.27511H3.67665C1.6494 3.27511 0 4.92451 0 6.95176V44.3233C5.65639e-05 46.3506 1.64946 48 3.67671 48ZM10.951 2.41002C11.4109 1.95015 12.0196 1.69692 12.6645 1.69692H21.0701C22.405 1.69692 23.4909 2.78538 23.4909 4.12351C23.4909 4.76788 23.2388 5.37742 22.7864 5.83423C22.324 6.29217 21.7145 6.54433 21.0701 6.54433H12.6645C11.3296 6.54433 10.2437 5.45836 10.2437 4.12351C10.2437 3.47444 10.495 2.86598 10.951 2.41002Z" fill="black"/>
<path d="M12.9184 12.4986C12.587 12.1671 12.05 12.1671 11.7186 12.4986L8.4206 15.7966L7.07138 14.4476C6.73997 14.1162 6.20301 14.1162 5.8716 14.4476C5.54019 14.7788 5.54019 15.3162 5.8716 15.6474L7.82068 17.5965C7.97974 17.7555 8.19547 17.8451 8.42054 17.8451C8.64561 17.8451 8.86134 17.7556 9.0204 17.5965L12.9183 13.6983C13.2499 13.3669 13.2499 12.8297 12.9184 12.4986Z" fill="black"/>
<path d="M12.9184 23.4204C12.587 23.089 12.05 23.089 11.7186 23.4204L8.4206 26.7184L7.07138 25.3692C6.73997 25.0378 6.20301 25.0378 5.8716 25.3692C5.54019 25.7004 5.54019 26.2378 5.8716 26.569L7.82068 28.5181C7.98641 28.6838 8.20351 28.7667 8.42054 28.7667C8.63758 28.7667 8.85473 28.6838 9.0204 28.5181L12.9183 24.6202C13.2499 24.289 13.2499 23.7516 12.9184 23.4204Z" fill="black"/>
<path d="M11.7186 34.3365L8.4206 37.6345L7.07138 36.2856C6.73997 35.9542 6.2025 35.9542 5.8716 36.2856C5.54019 36.617 5.54019 37.1542 5.8716 37.4853L7.82068 39.4341C7.98641 39.5999 8.2035 39.6827 8.42054 39.6827C8.63758 39.6827 8.85473 39.5999 9.0204 39.4341L12.9183 35.5363C13.2497 35.2051 13.2497 34.6677 12.9183 34.3365C12.587 34.005 12.0501 34.005 11.7186 34.3365Z" fill="black"/>
<path d="M32.8864 31.284C34.1469 31.284 35.2119 32.0121 35.2119 32.874C35.2119 33.3427 35.5917 33.7225 36.0604 33.7225C36.5291 33.7225 36.9088 33.3427 36.9088 32.874C36.9088 31.2996 35.5465 29.9815 33.7349 29.6622V28.5008C33.7349 28.0321 33.3551 27.6523 32.8864 27.6523C32.4177 27.6523 32.0379 28.0321 32.0379 28.5008V29.6622C30.2265 29.9815 28.8643 31.2996 28.8643 32.874C28.8643 35.4368 31.0975 35.842 32.7282 36.1378C34.6524 36.4869 35.212 36.741 35.212 37.751C35.212 38.6096 34.1549 39.3344 32.9009 39.34C32.896 39.34 32.8914 39.3386 32.8865 39.3386C32.8815 39.3386 32.877 39.3399 32.872 39.34C31.618 39.3344 30.5612 38.6096 30.5612 37.751C30.5612 37.2823 30.1815 36.9026 29.7128 36.9026C29.2441 36.9026 28.8643 37.2823 28.8643 37.751C28.8643 39.3254 30.2265 40.6435 32.038 40.9629V42.1273C32.038 42.596 32.4178 42.9757 32.8865 42.9757C33.3551 42.9757 33.7349 42.596 33.7349 42.1273V40.9629C35.5466 40.6435 36.9089 39.3255 36.9089 37.751C36.9089 35.1717 34.6676 34.7651 33.0311 34.4682C31.1174 34.121 30.5612 33.8697 30.5612 32.874C30.5612 32.0121 31.6259 31.284 32.8864 31.284Z" fill="black"/>
<path d="M32.8861 24.7891C27.0828 24.7891 22.3613 29.5106 22.3613 35.3141C22.3613 41.1175 27.0828 45.8389 32.8861 45.8389C38.6897 45.8389 43.4112 41.1174 43.4112 35.3141C43.4112 29.5106 38.6897 24.7891 32.8861 24.7891ZM32.8861 44.1421C28.0185 44.1421 24.0582 40.1817 24.0582 35.3142C24.0582 30.4463 28.0186 26.486 32.8861 26.486C37.754 26.486 41.7143 30.4464 41.7143 35.3142C41.7143 40.1817 37.754 44.1421 32.8861 44.1421Z" fill="black"/>
<path d="M29.0282 16.9969C29.0282 16.5282 28.6485 16.1484 28.1798 16.1484H16.867C16.3983 16.1484 16.0186 16.5282 16.0186 16.9969C16.0186 17.4656 16.3983 17.8454 16.867 17.8454H28.1798C28.6485 17.8454 29.0282 17.4656 29.0282 16.9969Z" fill="black"/>
<path d="M23.3719 27.9149C23.3719 27.4462 22.9921 27.0664 22.5234 27.0664H16.867C16.3983 27.0664 16.0186 27.4462 16.0186 27.9149C16.0186 28.3836 16.3983 28.7633 16.867 28.7633H22.5234C22.9921 28.7633 23.3719 28.3836 23.3719 27.9149Z" fill="black"/>
<path d="M16.867 37.9883C16.3983 37.9883 16.0186 38.3681 16.0186 38.8367C16.0186 39.3054 16.3983 39.6852 16.867 39.6852H19.6952C20.1639 39.6852 20.5437 39.3054 20.5437 38.8367C20.5437 38.3681 20.1639 37.9883 19.6952 37.9883H16.867Z" fill="black"/>
</svg>
