<svg width="48" height="48" viewBox="0 0 48 48" fill="none" xmlns="http://www.w3.org/2000/svg">
<path d="M6 12H9V15H6V12ZM6 18H9V21H6V18ZM30 15H27V12H30V15ZM48 18V45H12V30H0V3H36V18H48ZM45 21H15V33.8672L22.5 26.3906L33 36.8672L40.5 29.3906L45 33.8672V21ZM12 27V18H33V6H30V9H27V6H9V9H6V6H3V27H6V24H9V27H12ZM15 42H33.8672L22.5 30.6094L15 38.1328V42ZM45 42V38.1328L40.5 33.6094L35.1328 39L38.1328 42H45ZM34.5 27C34.0938 27 33.7422 26.8516 33.4453 26.5547C33.1484 26.2578 33 25.9062 33 25.5C33 25.0938 33.1484 24.7422 33.4453 24.4453C33.7422 24.1484 34.0938 24 34.5 24C34.9062 24 35.2578 24.1484 35.5547 24.4453C35.8516 24.7422 36 25.0938 36 25.5C36 25.9062 35.8516 26.2578 35.5547 26.5547C35.2578 26.8516 34.9062 27 34.5 27Z" fill="url(#paint0_linear_732_9819)"/>
<defs>
<linearGradient id="paint0_linear_732_9819" x1="1.52866" y1="36.6" x2="61.8995" y2="17.3713" gradientUnits="userSpaceOnUse">
<stop stop-color="#6511D9"/>
<stop offset="1" stop-color="#FF51BF"/>
</linearGradient>
</defs>
</svg>
