<svg width="53" height="66" viewBox="0 0 53 66" fill="none" xmlns="http://www.w3.org/2000/svg">
<path d="M26.0056 29.3627C34.1139 29.3627 40.6869 22.7897 40.6869 14.6814C40.6869 6.57307 34.1139 0 26.0056 0C17.8973 0 11.3242 6.57307 11.3242 14.6814C11.3242 22.7897 17.8973 29.3627 26.0056 29.3627Z" fill="url(#paint0_radial_732_9429)"/>
<path d="M40.2517 18.218C41.444 13.3898 40.156 8.07403 36.3822 4.30203C30.6487 -1.43141 21.3531 -1.43141 15.6196 4.30203C11.8458 8.07587 10.5578 13.3898 11.7501 18.218C20.365 12.5176 31.6387 12.5176 40.2517 18.218Z" fill="#53DB8E"/>
<path d="M26.0434 65.8445C19.0863 65.8445 12.547 63.1361 7.62866 58.2159C2.71034 53.2976 0 46.7564 0 39.8012C0 32.8441 2.7085 26.3048 7.62866 21.3865C12.547 16.4681 19.0882 13.7578 26.0434 13.7578C33.0004 13.7578 39.5398 16.4663 44.4581 21.3865C49.3764 26.3048 52.0867 32.846 52.0867 39.8012C52.0867 46.7582 49.3782 53.2976 44.4581 58.2159C39.5398 63.1361 33.0004 65.8445 26.0434 65.8445ZM26.0434 14.1258C19.1857 14.1258 12.7383 16.7957 7.88808 21.6459C3.03784 26.4943 0.368 32.9435 0.368 39.8012C0.368 46.6589 3.03784 53.1062 7.88808 57.9565C12.7383 62.8067 19.1857 65.4765 26.0434 65.4765C32.901 65.4765 39.3484 62.8067 44.1987 57.9565C49.0489 53.1081 51.7187 46.6589 51.7187 39.8012C51.7187 32.9435 49.0489 26.4961 44.1987 21.6459C39.3484 16.7975 32.901 14.1258 26.0434 14.1258Z" fill="white"/>
<path opacity="0.3" d="M26.043 65.6601C40.3247 65.6601 51.9023 54.0825 51.9023 39.8008C51.9023 25.519 40.3247 13.9414 26.043 13.9414C11.7612 13.9414 0.183594 25.519 0.183594 39.8008C0.183594 54.0825 11.7612 65.6601 26.043 65.6601Z" fill="white"/>
<path d="M26.0298 37.4967C25.4207 37.4967 24.9258 37.0018 24.9258 36.3927V24.5063C24.9258 23.8973 25.4207 23.4023 26.0298 23.4023C26.6388 23.4023 27.1338 23.8973 27.1338 24.5063V36.3909C27.1338 37.0018 26.6388 37.4967 26.0298 37.4967Z" fill="white"/>
<path d="M26.0348 56.172C25.8748 56.172 25.7147 56.1701 25.5546 56.1646C21.2895 56.0432 17.2746 54.2363 14.2478 51.077C11.2229 47.9177 9.58894 43.8274 9.64598 39.5605C9.70854 35.0157 11.6976 30.6549 15.1053 27.5986C15.5597 27.192 16.2571 27.2288 16.6637 27.6832C17.0704 28.1377 17.0336 28.8351 16.5791 29.2417C13.6296 31.8877 11.9073 35.6578 11.854 39.5899C11.7509 47.1633 18.0529 53.7432 25.6172 53.9566C29.483 54.067 33.1409 52.6447 35.9101 49.9528C38.6812 47.259 40.2065 43.6489 40.2065 39.7868C40.2065 35.7792 38.4843 31.9373 35.4796 29.2417C35.0251 28.8351 34.9883 28.1359 35.3949 27.6832C35.8016 27.2288 36.5008 27.192 36.9534 27.5986C40.4237 30.7119 42.4145 35.1536 42.4145 39.7868C42.4145 44.2506 40.6518 48.4237 37.4502 51.5352C34.3627 54.5362 30.3257 56.1701 26.0348 56.172Z" fill="white"/>
<defs>
<radialGradient id="paint0_radial_732_9429" cx="0" cy="0" r="1" gradientUnits="userSpaceOnUse" gradientTransform="translate(26.0054 14.6818) rotate(-45) scale(14.6808)">
<stop stop-color="#53DB8E"/>
<stop offset="0.1719" stop-color="#57DC91"/>
<stop offset="0.3585" stop-color="#64E09A"/>
<stop offset="0.552" stop-color="#7AE7A9"/>
<stop offset="0.7502" stop-color="#98F0BD"/>
<stop offset="0.9502" stop-color="#BFFCD8"/>
<stop offset="1" stop-color="#CAFFDF"/>
</radialGradient>
</defs>
</svg>
