<svg width="48" height="38" viewBox="0 0 48 38" fill="none" xmlns="http://www.w3.org/2000/svg">
<path d="M47.5733 22.1867L40.72 35.8667C40.2667 36.7733 39.3333 37.3333 38.3467 37.3333H31.4933C30.5067 37.3333 29.8667 36.2933 30.2933 35.4133L37.3333 21.3333H30.6667C28.4533 21.3333 26.6667 19.5467 26.6667 17.3333V4C26.6667 1.78667 28.4533 0 30.6667 0H44C46.2133 0 48 1.78667 48 4V20.4C48 21.0133 47.8667 21.6267 47.5733 22.1867ZM21.3333 20.4V4C21.3333 1.78667 19.5467 0 17.3333 0H4C1.78667 0 0 1.78667 0 4V17.3333C0 19.5467 1.78667 21.3333 4 21.3333H10.6667L3.62667 35.4133C3.17334 36.2933 3.83999 37.3333 4.82666 37.3333H11.68C12.6933 37.3333 13.6267 36.7733 14.0533 35.8667L20.9067 22.1867C21.1733 21.6267 21.3333 21.0133 21.3333 20.4Z" fill="white"/>
</svg>
