<svg width="49" height="39" viewBox="0 0 49 39" fill="none" xmlns="http://www.w3.org/2000/svg">
<mask id="path-1-inside-1_801_12930" fill="white">
<path d="M37.009 38.1235C31.9257 38.2582 26.4052 34.4762 25.5131 26.4318L25.4444 25.6363L25.4419 25.621C24.9564 17.1852 30.8404 5.65115 43.6936 0.105236C43.9796 -0.0181278 44.3009 -0.0321811 44.5966 0.065746C44.8922 0.163673 45.1416 0.36676 45.2974 0.636444L48.1186 5.5139C48.2028 5.65951 48.2571 5.82037 48.2786 5.98714C48.3001 6.15392 48.2883 6.32331 48.2439 6.48549C48.1994 6.64767 48.1232 6.79941 48.0197 6.93193C47.9162 7.06445 47.7874 7.1751 47.6408 7.25748C43.2946 9.70257 39.9065 13.5379 37.8681 18.1917C40.8927 18.7255 43.0658 19.9785 44.5222 21.6484C46.2175 23.5953 46.8224 25.9692 46.8224 28.0458C46.8224 33.673 42.4939 38.2251 37.0116 38.1235M11.5949 38.1235C6.51156 38.2582 0.991059 34.4762 0.0989352 26.4318L0.0303089 25.6363L0.0277606 25.621C-0.457697 17.1852 5.42627 5.65115 18.2795 0.105233C18.5655 -0.01813 18.8868 -0.0321834 19.1824 0.0657438C19.4781 0.163671 19.7275 0.366758 19.8833 0.636442L22.7045 5.5139C22.7886 5.65951 22.843 5.82036 22.8645 5.98714C22.886 6.15392 22.8742 6.32331 22.8297 6.48549C22.7853 6.64767 22.7091 6.79941 22.6056 6.93193C22.5021 7.06445 22.3733 7.1751 22.2267 7.25748C17.8804 9.70257 14.4924 13.5379 12.454 18.1917C15.4786 18.7255 17.6517 19.9785 19.1081 21.6484C20.8034 23.5953 21.4083 25.9692 21.4083 28.0458C21.4083 33.673 17.0747 38.2251 11.5949 38.1235Z"/>
</mask>
<path d="M25.5131 26.4318L23.5205 26.6037L23.5226 26.628L23.5252 26.6523L25.5131 26.4318ZM25.4444 25.6363L27.437 25.4644L27.4302 25.3855L27.4172 25.3074L25.4444 25.6363ZM25.4419 25.621L23.4452 25.7359L23.4514 25.8436L23.4691 25.9499L25.4419 25.621ZM43.6936 0.105236L42.9014 -1.73118L42.9013 -1.73111L43.6936 0.105236ZM45.2974 0.636444L43.5656 1.63686L43.5662 1.63784L45.2974 0.636444ZM48.1186 5.5139L49.8504 4.51346L49.8499 4.51251L48.1186 5.5139ZM47.6408 7.25748L46.661 5.51392L46.6602 5.51439L47.6408 7.25748ZM37.8681 18.1917L36.0361 17.3893L35.0156 19.7192L37.5205 20.1613L37.8681 18.1917ZM44.5222 21.6484L46.0305 20.335L46.0295 20.3338L44.5222 21.6484ZM11.5949 38.1235L11.632 36.1238L11.5869 36.123L11.5419 36.1242L11.5949 38.1235ZM0.0989352 26.4318L-1.89367 26.6037L-1.89157 26.628L-1.88888 26.6523L0.0989352 26.4318ZM0.0303089 25.6363L2.02291 25.4644L2.01609 25.3853L2.00303 25.3071L0.0303089 25.6363ZM0.0277606 25.621L-1.96894 25.7359L-1.96273 25.8437L-1.94496 25.9502L0.0277606 25.621ZM18.2795 0.105233L17.4873 -1.73118L17.4871 -1.73112L18.2795 0.105233ZM19.8833 0.636442L18.1515 1.63686L18.152 1.63784L19.8833 0.636442ZM22.7045 5.5139L24.4363 4.51346L24.4358 4.51251L22.7045 5.5139ZM22.2267 7.25748L21.2469 5.51392L21.2461 5.51439L22.2267 7.25748ZM12.454 18.1917L10.622 17.3893L9.60146 19.7192L12.1064 20.1613L12.454 18.1917ZM19.1081 21.6484L20.6164 20.335L20.6153 20.3338L19.1081 21.6484ZM37.009 38.1235L36.956 36.1242C32.9871 36.2294 28.2869 33.2991 27.5009 26.2114L25.5131 26.4318L23.5252 26.6523C24.5235 35.6533 30.8642 40.287 37.062 40.1228L37.009 38.1235ZM25.5131 26.4318L27.5057 26.2599L27.437 25.4644L25.4444 25.6363L23.4518 25.8082L23.5205 26.6037L25.5131 26.4318ZM25.4444 25.6363L27.4172 25.3074L27.4147 25.2921L25.4419 25.621L23.4691 25.9499L23.4717 25.9652L25.4444 25.6363ZM25.4419 25.621L27.4386 25.5061C27.0059 17.987 32.33 7.18664 44.486 1.94159L43.6936 0.105236L42.9013 -1.73111C29.3508 4.11566 22.907 16.3834 23.4452 25.7359L25.4419 25.621ZM43.6936 0.105236L44.4858 1.94166C44.3217 2.01244 44.1373 2.0205 43.9677 1.96431L44.5966 0.065746L45.2254 -1.83282C44.4644 -2.08486 43.6374 -2.04869 42.9014 -1.73118L43.6936 0.105236ZM44.5966 0.065746L43.9677 1.96431C43.7981 1.90813 43.655 1.7916 43.5656 1.63686L45.2974 0.636444L47.0292 -0.363976C46.6282 -1.05808 45.9863 -1.58078 45.2254 -1.83282L44.5966 0.065746ZM45.2974 0.636444L43.5662 1.63784L46.3874 6.5153L48.1186 5.5139L49.8499 4.51251L47.0286 -0.364952L45.2974 0.636444ZM48.1186 5.5139L46.3868 6.51435C46.3386 6.4308 46.3074 6.3385 46.295 6.24281L48.2786 5.98714L50.2622 5.73148C50.2069 5.30223 50.0669 4.88823 49.8504 4.51346L48.1186 5.5139ZM48.2786 5.98714L46.295 6.24281C46.2827 6.14712 46.2895 6.04993 46.315 5.95687L48.2439 6.48549L50.1727 7.0141C50.2871 6.59669 50.3176 6.16073 50.2622 5.73148L48.2786 5.98714ZM48.2439 6.48549L46.315 5.95687C46.3405 5.86382 46.3842 5.77676 46.4436 5.70072L48.0197 6.93193L49.5958 8.16314C49.8623 7.82207 50.0584 7.43151 50.1727 7.0141L48.2439 6.48549ZM48.0197 6.93193L46.4436 5.70072C46.503 5.62468 46.5769 5.56118 46.661 5.51392L47.6408 7.25748L48.6206 9.00104C48.9979 8.78902 49.3294 8.50423 49.5958 8.16314L48.0197 6.93193ZM47.6408 7.25748L46.6602 5.51439C41.9168 8.18286 38.2399 12.358 36.0361 17.3893L37.8681 18.1917L39.7001 18.9942C41.5731 14.7179 44.6723 11.2223 48.6214 9.00058L47.6408 7.25748ZM37.8681 18.1917L37.5205 20.1613C40.1642 20.6278 41.902 21.6869 43.0149 22.963L44.5222 21.6484L46.0295 20.3338C44.2296 18.2701 41.6212 16.8231 38.2157 16.2222L37.8681 18.1917ZM44.5222 21.6484L43.0139 22.9618C44.3241 24.4664 44.8224 26.3372 44.8224 28.0458L46.8224 28.0458L48.8224 28.0458C48.8224 25.6013 48.1109 22.7242 46.0305 20.335L44.5222 21.6484ZM46.8224 28.0458L44.8224 28.0458C44.8224 32.6554 41.3133 36.2029 37.0486 36.1238L37.0116 38.1235L36.9745 40.1231C43.6746 40.2474 48.8224 34.6906 48.8224 28.0458L46.8224 28.0458ZM11.5949 38.1235L11.5419 36.1242C7.57301 36.2294 2.87278 33.2991 2.08675 26.2114L0.0989352 26.4318L-1.88888 26.6523C-0.890659 35.6533 5.4501 40.287 11.6479 40.1228L11.5949 38.1235ZM0.0989352 26.4318L2.09153 26.2599L2.02291 25.4644L0.0303089 25.6363L-1.96229 25.8082L-1.89367 26.6037L0.0989352 26.4318ZM0.0303089 25.6363L2.00303 25.3071L2.00048 25.2918L0.0277606 25.621L-1.94496 25.9502L-1.94241 25.9655L0.0303089 25.6363ZM0.0277606 25.621L2.02446 25.5061C1.59176 17.987 6.9159 7.18664 19.0718 1.94159L18.2795 0.105233L17.4871 -1.73112C3.93664 4.11566 -2.50715 16.3834 -1.96894 25.7359L0.0277606 25.621ZM18.2795 0.105233L19.0717 1.94166C18.9076 2.01243 18.7232 2.0205 18.5536 1.96431L19.1824 0.0657438L19.8113 -1.83282C19.0503 -2.08486 18.2233 -2.04869 17.4873 -1.73118L18.2795 0.105233ZM19.1824 0.0657438L18.5536 1.96431C18.3839 1.90812 18.2408 1.7916 18.1515 1.63686L19.8833 0.636442L21.6151 -0.363978C21.2141 -1.05808 20.5722 -1.58078 19.8113 -1.83282L19.1824 0.0657438ZM19.8833 0.636442L18.152 1.63784L20.9733 6.5153L22.7045 5.5139L24.4358 4.51251L21.6145 -0.364954L19.8833 0.636442ZM22.7045 5.5139L20.9727 6.51434C20.9245 6.4308 20.8933 6.33851 20.8809 6.24281L22.8645 5.98714L24.8481 5.73148C24.7928 5.30222 24.6528 4.88822 24.4363 4.51346L22.7045 5.5139ZM22.8645 5.98714L20.8809 6.24281C20.8686 6.14712 20.8754 6.04992 20.9009 5.95687L22.8297 6.48549L24.7586 7.0141C24.873 6.59669 24.9034 6.16073 24.8481 5.73148L22.8645 5.98714ZM22.8297 6.48549L20.9009 5.95687C20.9264 5.86381 20.9701 5.77674 21.0295 5.70072L22.6056 6.93193L24.1817 8.16314C24.4481 7.82208 24.6442 7.43152 24.7586 7.0141L22.8297 6.48549ZM22.6056 6.93193L21.0295 5.70072C21.0889 5.62468 21.1628 5.56119 21.2469 5.51392L22.2267 7.25748L23.2065 9.00104C23.5838 8.78901 23.9153 8.50422 24.1817 8.16314L22.6056 6.93193ZM22.2267 7.25748L21.2461 5.51439C16.5027 8.18286 12.8258 12.358 10.622 17.3893L12.454 18.1917L14.2859 18.9942C16.159 14.7178 19.2581 11.2223 23.2073 9.00058L22.2267 7.25748ZM12.454 18.1917L12.1064 20.1613C14.7501 20.6278 16.4879 21.6869 17.6008 22.963L19.1081 21.6484L20.6153 20.3338C18.8155 18.2701 16.2071 16.8231 12.8015 16.2222L12.454 18.1917ZM19.1081 21.6484L17.5997 22.9618C18.9099 24.4664 19.4083 26.3372 19.4083 28.0458L21.4083 28.0458L23.4083 28.0458C23.4083 25.6013 22.6968 22.7242 20.6164 20.335L19.1081 21.6484ZM21.4083 28.0458L19.4083 28.0458C19.4083 32.6544 15.895 36.2029 11.632 36.1238L11.5949 38.1235L11.5578 40.1231C18.2544 40.2474 23.4083 34.6917 23.4083 28.0458L21.4083 28.0458Z" fill="#06050B" mask="url(#path-1-inside-1_801_12930)"/>
</svg>
