<svg width="24" height="24" viewBox="0 0 24 24" fill="none" xmlns="http://www.w3.org/2000/svg">
<path d="M17.0619 19.4986C15.0619 19.5516 12.8899 18.0636 12.5389 14.8986L12.5119 14.5856L12.5109 14.5796C12.3199 11.2606 14.6349 6.72264 19.692 4.54064C19.8045 4.4921 19.9309 4.48657 20.0472 4.5251C20.1635 4.56363 20.2617 4.64353 20.323 4.74964L21.433 6.66864C21.466 6.72592 21.4874 6.78921 21.4959 6.85483C21.5044 6.92045 21.4997 6.98709 21.4822 7.0509C21.4647 7.11471 21.4348 7.17441 21.394 7.22655C21.3533 7.27869 21.3026 7.32222 21.2449 7.35464C19.5349 8.31664 18.2019 9.82563 17.3999 11.6566C18.5899 11.8666 19.4449 12.3596 20.0179 13.0166C20.6849 13.7826 20.9229 14.7166 20.9229 15.5336C20.9229 17.7476 19.2199 19.5386 17.0629 19.4986M7.06295 19.4986C5.06295 19.5516 2.89095 18.0636 2.53995 14.8986L2.51295 14.5856L2.51195 14.5796C2.32095 11.2606 4.63595 6.72263 9.69295 4.54064C9.80547 4.4921 9.93189 4.48657 10.0482 4.5251C10.1645 4.56363 10.2627 4.64353 10.324 4.74963L11.434 6.66864C11.467 6.72592 11.4884 6.78921 11.4969 6.85483C11.5054 6.92045 11.5007 6.98709 11.4832 7.0509C11.4657 7.11471 11.4358 7.17441 11.395 7.22655C11.3543 7.27869 11.3036 7.32222 11.246 7.35463C9.53595 8.31663 8.20295 9.82563 7.40095 11.6566C8.59095 11.8666 9.44595 12.3596 10.019 13.0166C10.6859 13.7826 10.9239 14.7166 10.9239 15.5336C10.9239 17.7476 9.21895 19.5386 7.06295 19.4986Z" fill="url(#paint0_linear_732_19574)"/>
<defs>
<linearGradient id="paint0_linear_732_19574" x1="20.8949" y1="7.4998" x2="-2.5086" y2="15.761" gradientUnits="userSpaceOnUse">
<stop stop-color="#6511D9"/>
<stop offset="1" stop-color="#FF51BF"/>
</linearGradient>
</defs>
</svg>
