<svg width="49" height="39" viewBox="0 0 49 39" fill="none" xmlns="http://www.w3.org/2000/svg">
<mask id="path-1-inside-1_732_16836" fill="white">
<path d="M37.009 38.1235C31.9257 38.2582 26.4052 34.4762 25.5131 26.4318L25.4444 25.6363L25.4419 25.621C24.9564 17.1852 30.8404 5.65115 43.6936 0.105236C43.9796 -0.0181278 44.3009 -0.0321811 44.5966 0.065746C44.8922 0.163673 45.1416 0.36676 45.2974 0.636444L48.1186 5.5139C48.2028 5.65951 48.2571 5.82037 48.2786 5.98714C48.3001 6.15392 48.2883 6.32331 48.2439 6.48549C48.1994 6.64767 48.1232 6.79941 48.0197 6.93193C47.9162 7.06445 47.7874 7.1751 47.6408 7.25748C43.2946 9.70257 39.9065 13.5379 37.8681 18.1917C40.8927 18.7255 43.0658 19.9785 44.5222 21.6484C46.2175 23.5953 46.8224 25.9692 46.8224 28.0458C46.8224 33.673 42.4939 38.2251 37.0116 38.1235M11.5949 38.1235C6.51156 38.2582 0.991059 34.4762 0.0989352 26.4318L0.0303089 25.6363L0.0277606 25.621C-0.457697 17.1852 5.42627 5.65115 18.2795 0.105233C18.5655 -0.01813 18.8868 -0.0321834 19.1824 0.0657438C19.4781 0.163671 19.7275 0.366758 19.8833 0.636442L22.7045 5.5139C22.7886 5.65951 22.843 5.82036 22.8645 5.98714C22.886 6.15392 22.8742 6.32331 22.8297 6.48549C22.7853 6.64767 22.7091 6.79941 22.6056 6.93193C22.5021 7.06445 22.3733 7.1751 22.2267 7.25748C17.8804 9.70257 14.4924 13.5379 12.454 18.1917C15.4786 18.7255 17.6517 19.9785 19.1081 21.6484C20.8034 23.5953 21.4083 25.9692 21.4083 28.0458C21.4083 33.673 17.0747 38.2251 11.5949 38.1235Z"/>
</mask>
<path d="M25.5131 26.4318L24.5168 26.5178L24.5178 26.5299L24.5192 26.542L25.5131 26.4318ZM25.4444 25.6363L26.4407 25.5503L26.4373 25.5109L26.4308 25.4718L25.4444 25.6363ZM25.4419 25.621L24.4435 25.6785L24.4466 25.7323L24.4555 25.7855L25.4419 25.621ZM43.6936 0.105236L43.2975 -0.812973L43.2974 -0.812939L43.6936 0.105236ZM45.2974 0.636444L44.4315 1.13665L44.4318 1.13714L45.2974 0.636444ZM48.1186 5.5139L48.9845 5.01368L48.9843 5.01321L48.1186 5.5139ZM47.6408 7.25748L47.1509 6.3857L47.1505 6.38594L47.6408 7.25748ZM37.8681 18.1917L36.9521 17.7905L36.4418 18.9555L37.6943 19.1765L37.8681 18.1917ZM44.5222 21.6484L45.2763 20.9917L45.2758 20.9911L44.5222 21.6484ZM11.5949 38.1235L11.6134 37.1236L11.5909 37.1232L11.5684 37.1238L11.5949 38.1235ZM0.0989352 26.4318L-0.897368 26.5178L-0.896319 26.5299L-0.894973 26.542L0.0989352 26.4318ZM0.0303089 25.6363L1.02661 25.5503L1.0232 25.5108L1.01667 25.4717L0.0303089 25.6363ZM0.0277606 25.621L-0.970588 25.6785L-0.967482 25.7324L-0.958598 25.7856L0.0277606 25.621ZM18.2795 0.105233L17.8834 -0.812976L17.8833 -0.812941L18.2795 0.105233ZM19.8833 0.636442L19.0174 1.13665L19.0176 1.13714L19.8833 0.636442ZM22.7045 5.5139L23.5704 5.01368L23.5701 5.0132L22.7045 5.5139ZM22.2267 7.25748L21.7368 6.3857L21.7364 6.38593L22.2267 7.25748ZM12.454 18.1917L11.538 17.7905L11.0277 18.9555L12.2802 19.1765L12.454 18.1917ZM19.1081 21.6484L19.8622 20.9917L19.8617 20.9911L19.1081 21.6484ZM37.009 38.1235L36.9825 37.1238C32.4564 37.2438 27.346 33.8876 26.507 26.3216L25.5131 26.4318L24.5192 26.542C25.4643 35.0647 31.395 39.2726 37.0355 39.1231L37.009 38.1235ZM25.5131 26.4318L26.5094 26.3459L26.4407 25.5503L25.4444 25.6363L24.4481 25.7222L24.5168 26.5178L25.5131 26.4318ZM25.4444 25.6363L26.4308 25.4718L26.4283 25.4566L25.4419 25.621L24.4555 25.7855L24.458 25.8007L25.4444 25.6363ZM25.4419 25.621L26.4402 25.5636C25.9812 17.5861 31.5852 6.4189 44.0898 1.02341L43.6936 0.105236L43.2974 -0.812939C30.0956 4.88341 23.9317 16.7843 24.4435 25.6785L25.4419 25.621ZM43.6936 0.105236L44.0897 1.02344C44.1506 0.997154 44.2191 0.994159 44.2821 1.01503L44.5966 0.065746L44.911 -0.883538C44.3827 -1.05852 43.8085 -1.03341 43.2975 -0.812973L43.6936 0.105236ZM44.5966 0.065746L44.2821 1.01503C44.3451 1.0359 44.3983 1.07918 44.4315 1.13665L45.2974 0.636444L46.1633 0.136234C45.8849 -0.345661 45.4393 -0.708554 44.911 -0.883538L44.5966 0.065746ZM45.2974 0.636444L44.4318 1.13714L47.253 6.0146L48.1186 5.5139L48.9843 5.01321L46.163 0.135746L45.2974 0.636444ZM48.1186 5.5139L47.2527 6.01413C47.2707 6.04515 47.2823 6.07944 47.2868 6.11498L48.2786 5.98714L49.2704 5.85931C49.232 5.5613 49.1348 5.27387 48.9845 5.01368L48.1186 5.5139ZM48.2786 5.98714L47.2868 6.11498C47.2914 6.15052 47.2889 6.18662 47.2794 6.22118L48.2439 6.48549L49.2083 6.7498C49.2877 6.46 49.3088 6.15733 49.2704 5.85931L48.2786 5.98714ZM48.2439 6.48549L47.2794 6.22118C47.27 6.25574 47.2537 6.28809 47.2317 6.31633L48.0197 6.93193L48.8078 7.54754C48.9927 7.31074 49.1289 7.03959 49.2083 6.7498L48.2439 6.48549ZM48.0197 6.93193L47.2317 6.31633C47.2096 6.34456 47.1822 6.36814 47.1509 6.3857L47.6408 7.25748L48.1307 8.12926C48.3927 7.98206 48.6228 7.78434 48.8078 7.54754L48.0197 6.93193ZM47.6408 7.25748L47.1505 6.38594C42.6057 8.94272 39.0732 12.948 36.9521 17.7905L37.8681 18.1917L38.7841 18.5929C40.7398 14.1279 43.9834 10.4624 48.1311 8.12903L47.6408 7.25748ZM37.8681 18.1917L37.6943 19.1765C40.5284 19.6767 42.4839 20.8327 43.7685 22.3057L44.5222 21.6484L45.2758 20.9911C43.6477 19.1243 41.2569 17.7743 38.0419 17.2069L37.8681 18.1917ZM44.5222 21.6484L43.768 22.3051C45.2708 24.0309 45.8224 26.1532 45.8224 28.0458L46.8224 28.0458L47.8224 28.0458C47.8224 25.7853 47.1642 23.1598 45.2763 20.9917L44.5222 21.6484ZM46.8224 28.0458L45.8224 28.0458C45.8224 33.1642 41.9036 37.214 37.0301 37.1237L37.0116 38.1235L36.993 39.1233C43.0843 39.2363 47.8224 34.1818 47.8224 28.0458L46.8224 28.0458ZM11.5949 38.1235L11.5684 37.1238C7.04229 37.2438 1.93192 33.8876 1.09284 26.3216L0.0989352 26.4318L-0.894973 26.542C0.0501979 35.0647 5.98083 39.2726 11.6214 39.1231L11.5949 38.1235ZM0.0989352 26.4318L1.09523 26.3459L1.02661 25.5503L0.0303089 25.6363L-0.965991 25.7222L-0.897368 26.5178L0.0989352 26.4318ZM0.0303089 25.6363L1.01667 25.4717L1.01412 25.4564L0.0277606 25.621L-0.958598 25.7856L-0.956054 25.8009L0.0303089 25.6363ZM0.0277606 25.621L1.02611 25.5636C0.56703 17.5861 6.17108 6.41889 18.6757 1.02341L18.2795 0.105233L17.8833 -0.812941C4.68145 4.8834 -1.48242 16.7843 -0.970588 25.6785L0.0277606 25.621ZM18.2795 0.105233L18.6756 1.02344C18.7365 0.997152 18.805 0.994157 18.868 1.01503L19.1824 0.0657438L19.4968 -0.88354C18.9685 -1.05852 18.3944 -1.03341 17.8834 -0.812976L18.2795 0.105233ZM19.1824 0.0657438L18.868 1.01503C18.931 1.0359 18.9842 1.07918 19.0174 1.13665L19.8833 0.636442L20.7492 0.136232C20.4708 -0.345664 20.0251 -0.708556 19.4968 -0.88354L19.1824 0.0657438ZM19.8833 0.636442L19.0176 1.13714L21.8389 6.0146L22.7045 5.5139L23.5701 5.0132L20.7489 0.135744L19.8833 0.636442ZM22.7045 5.5139L21.8386 6.01412C21.8565 6.04516 21.8681 6.07944 21.8727 6.11498L22.8645 5.98714L23.8563 5.85931C23.8179 5.56129 23.7207 5.27386 23.5704 5.01368L22.7045 5.5139ZM22.8645 5.98714L21.8727 6.11498C21.8773 6.15052 21.8748 6.18662 21.8653 6.22118L22.8297 6.48549L23.7942 6.74979C23.8736 6.46 23.8947 6.15733 23.8563 5.85931L22.8645 5.98714ZM22.8297 6.48549L21.8653 6.22118C21.8558 6.25574 21.8396 6.28808 21.8175 6.31632L22.6056 6.93193L23.3936 7.54754C23.5786 7.31075 23.7148 7.03959 23.7942 6.74979L22.8297 6.48549ZM22.6056 6.93193L21.8175 6.31632C21.7955 6.34456 21.768 6.36814 21.7368 6.3857L22.2267 7.25748L22.7166 8.12926C22.9785 7.98206 23.2087 7.78433 23.3936 7.54754L22.6056 6.93193ZM22.2267 7.25748L21.7364 6.38593C17.1916 8.94271 13.6591 12.948 11.538 17.7905L12.454 18.1917L13.37 18.5929C15.3257 14.1279 18.5693 10.4624 22.717 8.12903L22.2267 7.25748ZM12.454 18.1917L12.2802 19.1765C15.1143 19.6767 17.0698 20.8327 18.3544 22.3057L19.1081 21.6484L19.8617 20.9911C18.2336 19.1243 15.8428 17.7743 12.6278 17.2069L12.454 18.1917ZM19.1081 21.6484L18.3539 22.3051C19.8566 24.0309 20.4083 26.1532 20.4083 28.0458L21.4083 28.0458L22.4083 28.0458C22.4083 25.7853 21.7501 23.1598 19.8622 20.9917L19.1081 21.6484ZM21.4083 28.0458L20.4083 28.0458C20.4083 33.1637 16.4849 37.214 11.6134 37.1236L11.5949 38.1235L11.5763 39.1233C17.6646 39.2363 22.4083 34.1823 22.4083 28.0458L21.4083 28.0458Z" fill="#06050B" mask="url(#path-1-inside-1_732_16836)"/>
</svg>
