<svg width="15" height="20" viewBox="0 0 15 20" fill="none" xmlns="http://www.w3.org/2000/svg">
<path d="M1.48596 1.48596V17.7127L6.03747 14.0706C6.43268 13.7544 6.92371 13.5822 7.42981 13.5822C7.93591 13.5822 8.42695 13.7544 8.82216 14.0706L13.3737 17.7112V1.48596H1.48596ZM0.742981 0H14.1166C14.3137 0 14.5027 0.0782781 14.642 0.217614C14.7813 0.35695 14.8596 0.54593 14.8596 0.742981V19.2581C14.8594 19.3979 14.8198 19.5348 14.7453 19.6531C14.6707 19.7714 14.5643 19.8662 14.4383 19.9268C14.3123 19.9873 14.1717 20.011 14.0328 19.9953C13.8939 19.9795 13.7623 19.9248 13.653 19.8376L7.89343 15.2311C7.76178 15.126 7.5983 15.0687 7.42981 15.0687C7.26133 15.0687 7.09785 15.126 6.96619 15.2311L1.2066 19.8376C1.09735 19.9248 0.965707 19.9795 0.826793 19.9953C0.687878 20.011 0.547333 19.9873 0.421309 19.9268C0.295284 19.8662 0.188895 19.7714 0.114368 19.6531C0.0398402 19.5348 0.000199019 19.3979 0 19.2581V0.742981C0 0.54593 0.0782783 0.35695 0.217614 0.217614C0.35695 0.0782781 0.54593 0 0.742981 0Z" fill="white"/>
</svg>
