<svg width="50" height="48" viewBox="0 0 50 48" fill="none" xmlns="http://www.w3.org/2000/svg">
<path d="M38.5984 21.5389C44.5462 21.5389 49.3679 16.7173 49.3679 10.7695C49.3679 4.82165 44.5462 0 38.5984 0C32.6506 0 27.829 4.82165 27.829 10.7695C27.829 16.7173 32.6506 21.5389 38.5984 21.5389Z" fill="url(#paint0_radial_732_19890)"/>
<path d="M49.3679 10.7695C49.3679 4.82179 44.5461 0 38.5984 0C34.0754 0 30.2068 2.78919 28.6111 6.74029L29.4112 7.42633C32.1689 9.78768 35.6861 11.0892 39.316 11.0892H43.6439V20.2839C47.0486 18.4735 49.3679 14.8932 49.3679 10.7695Z" fill="url(#paint1_radial_732_19890)"/>
<path d="M8.26399 47.3776C12.8281 47.3776 16.528 43.6777 16.528 39.1136C16.528 34.5495 12.8281 30.8496 8.26399 30.8496C3.69991 30.8496 0 34.5495 0 39.1136C0 43.6777 3.69991 47.3776 8.26399 47.3776Z" fill="url(#paint2_radial_732_19890)"/>
<path d="M5.43877 31.3438C2.26528 32.4982 0 35.5395 0 39.1123C0 43.6759 3.70041 47.3763 8.26399 47.3763C11.421 47.3763 14.1636 45.6065 15.5552 43.0049L14.4518 42.3744C10.136 39.908 6.96397 35.9374 5.43877 31.3438Z" fill="#69D198"/>
<path opacity="0.5" d="M39.3158 11.0889C35.6845 11.0889 32.1687 9.78743 29.4111 7.42607L24.0353 2.81445L18.6581 7.42457C15.9004 9.78593 12.3832 11.0874 8.75334 11.0874H4.42694V25.0949C4.42694 32.218 8.26846 38.8397 14.4533 42.3735L24.0353 47.8498L33.6159 42.375C39.8007 38.8397 43.6452 32.218 43.6452 25.0964V11.0889H39.3158Z" fill="white"/>
<path d="M27.6922 26.8244C27.6922 24.8083 26.0499 23.166 24.0338 23.166C22.0162 23.166 20.377 24.8083 20.377 26.8244C20.377 28.3511 21.3212 29.6541 22.6527 30.2005L21.7866 33.5662C21.7866 34.3288 23.2697 34.4264 24.0338 34.4264C24.7964 34.4264 26.2796 34.3288 26.2796 33.5662L25.4134 30.2005C26.748 29.6541 27.6922 28.3526 27.6922 26.8244ZM24.0353 25.9267C24.5307 25.9267 24.933 26.329 24.933 26.8244C24.933 27.3183 24.5307 27.7191 24.0353 27.7191C23.5414 27.7191 23.1391 27.3183 23.1391 26.8244C23.1391 26.3275 23.5414 25.9267 24.0353 25.9267Z" fill="#3EED91"/>
<path d="M24.0355 48.0001C24.01 48.0001 23.9845 47.9941 23.9605 47.9806L14.3785 42.5058C8.14708 38.945 4.27704 32.2738 4.27704 25.0966V11.0891C4.27704 11.0066 4.34459 10.939 4.42716 10.939H8.75355C12.3474 10.939 15.8301 9.651 18.5608 7.31216L23.938 2.70204C23.9935 2.65401 24.0776 2.65401 24.1331 2.70204L29.5088 7.31216C32.2395 9.651 35.7222 10.939 39.316 10.939H43.6439C43.7265 10.939 43.7941 11.0066 43.7941 11.0891V25.0966C43.7941 32.2738 39.9225 38.9435 33.6896 42.5058L24.1091 47.9806C24.0866 47.9941 24.0611 48.0001 24.0355 48.0001ZM4.57577 11.2392V25.0966C4.57577 32.1672 8.38877 38.7378 14.5271 42.2461L24.0355 47.6773L33.541 42.2446C39.6808 38.7363 43.4938 32.1642 43.4938 25.0951V11.2377H39.316C35.6502 11.2377 32.0984 9.92421 29.3137 7.53884L24.0355 3.01279L18.7559 7.54034C15.9712 9.92571 12.4179 11.2392 8.75355 11.2392H4.57577Z" fill="white"/>
<defs>
<radialGradient id="paint0_radial_732_19890" cx="0" cy="0" r="1" gradientUnits="userSpaceOnUse" gradientTransform="translate(38.5986 10.7693) scale(10.7693)">
<stop stop-color="#4BC682"/>
<stop offset="0.9947" stop-color="#CFFFE7"/>
</radialGradient>
<radialGradient id="paint1_radial_732_19890" cx="0" cy="0" r="1" gradientUnits="userSpaceOnUse" gradientTransform="translate(38.9897 10.1417) scale(10.2606)">
<stop stop-color="#4BC682"/>
<stop offset="0.9947" stop-color="#3AC171"/>
</radialGradient>
<radialGradient id="paint2_radial_732_19890" cx="0" cy="0" r="1" gradientUnits="userSpaceOnUse" gradientTransform="translate(8.26469 39.1131) scale(8.26447)">
<stop stop-color="#4BC682"/>
<stop offset="0.9947" stop-color="#CFFFE7"/>
</radialGradient>
</defs>
</svg>
