<svg width="57" height="72" viewBox="0 0 57 72" fill="none" xmlns="http://www.w3.org/2000/svg">
<path d="M28.2661 31.916C37.0795 31.916 44.2241 24.7714 44.2241 15.958C44.2241 7.14464 37.0795 0 28.2661 0C19.4528 0 12.3081 7.14464 12.3081 15.958C12.3081 24.7714 19.4528 31.916 28.2661 31.916Z" fill="url(#paint0_radial_732_19969)"/>
<path d="M43.7541 19.802C45.0501 14.554 43.6501 8.77595 39.5481 4.67595C33.3161 -1.55605 23.2121 -1.55605 16.9801 4.67595C12.8781 8.77795 11.4781 14.554 12.7741 19.802C22.1381 13.606 34.3921 13.606 43.7541 19.802Z" fill="#53DB8E"/>
<path d="M28.3083 71.5691C20.7463 71.5691 13.6383 68.6251 8.29226 63.2771C2.94626 57.9311 0.000244141 50.8211 0.000244141 43.2611C0.000244141 35.6991 2.94426 28.5911 8.29226 23.2451C13.6383 17.8991 20.7483 14.9531 28.3083 14.9531C35.8703 14.9531 42.9782 17.8971 48.3242 23.2451C53.6702 28.5911 56.6163 35.7011 56.6163 43.2611C56.6163 50.8231 53.6722 57.9311 48.3242 63.2771C42.9782 68.6251 35.8703 71.5691 28.3083 71.5691ZM28.3083 15.3531C20.8543 15.3531 13.8462 18.2551 8.57424 23.5271C3.30224 28.7971 0.400244 35.8071 0.400244 43.2611C0.400244 50.7151 3.30224 57.7231 8.57424 62.9951C13.8462 68.2671 20.8543 71.1691 28.3083 71.1691C35.7623 71.1691 42.7703 68.2671 48.0423 62.9951C53.3143 57.7251 56.2163 50.7151 56.2163 43.2611C56.2163 35.8071 53.3143 28.7991 48.0423 23.5271C42.7703 18.2571 35.7623 15.3531 28.3083 15.3531Z" fill="white"/>
<path opacity="0.3" d="M28.3081 71.3703C43.8317 71.3703 56.4161 58.7859 56.4161 43.2623C56.4161 27.7387 43.8317 15.1543 28.3081 15.1543C12.7845 15.1543 0.200073 27.7387 0.200073 43.2623C0.200073 58.7859 12.7845 71.3703 28.3081 71.3703Z" fill="white"/>
<path d="M28.2922 40.7575C27.6302 40.7575 27.0922 40.2195 27.0922 39.5575V26.6375C27.0922 25.9755 27.6302 25.4375 28.2922 25.4375C28.9542 25.4375 29.4922 25.9755 29.4922 26.6375V39.5555C29.4922 40.2195 28.9542 40.7575 28.2922 40.7575Z" fill="white"/>
<path d="M28.2982 61.0581C28.1242 61.0581 27.9502 61.0561 27.7762 61.0501C23.1402 60.9181 18.7762 58.9541 15.4862 55.5201C12.1982 52.0861 10.4222 47.6401 10.4842 43.0021C10.5522 38.0621 12.7142 33.3221 16.4182 30.0001C16.9122 29.5581 17.6702 29.5981 18.1122 30.0921C18.5542 30.5861 18.5142 31.3441 18.0202 31.7861C14.8142 34.6621 12.9422 38.7601 12.8842 43.0341C12.7722 51.2661 19.6222 58.4181 27.8442 58.6501C32.0462 58.7701 36.0222 57.2241 39.0322 54.2981C42.0442 51.3701 43.7022 47.4461 43.7022 43.2481C43.7022 38.8921 41.8302 34.7161 38.5642 31.7861C38.0702 31.3441 38.0302 30.5841 38.4722 30.0921C38.9142 29.5981 39.6742 29.5581 40.1662 30.0001C43.9382 33.3841 46.1022 38.2121 46.1022 43.2481C46.1022 48.1001 44.1862 52.6361 40.7062 56.0181C37.3502 59.2801 32.9622 61.0561 28.2982 61.0581Z" fill="white"/>
<defs>
<radialGradient id="paint0_radial_732_19969" cx="0" cy="0" r="1" gradientUnits="userSpaceOnUse" gradientTransform="translate(28.2659 15.9585) rotate(-45) scale(15.9574)">
<stop stop-color="#53DB8E"/>
<stop offset="0.1719" stop-color="#57DC91"/>
<stop offset="0.3585" stop-color="#64E09A"/>
<stop offset="0.552" stop-color="#7AE7A9"/>
<stop offset="0.7502" stop-color="#98F0BD"/>
<stop offset="0.9502" stop-color="#BFFCD8"/>
<stop offset="1" stop-color="#CAFFDF"/>
</radialGradient>
</defs>
</svg>
