<svg width="11" height="83" viewBox="0 0 11 83" fill="none" xmlns="http://www.w3.org/2000/svg">
<path d="M5.33398 0.000650883C2.38847 0.000650754 0.000651011 2.38847 0.000650883 5.33398C0.000650754 8.2795 2.38847 10.6673 5.33398 10.6673C8.2795 10.6673 10.6673 8.2795 10.6673 5.33398C10.6673 2.38847 8.2795 0.000651011 5.33398 0.000650883ZM5.33398 72.0006C2.38846 72.0006 0.000647864 74.3885 0.000647736 77.334C0.000647607 80.2795 2.38846 82.6673 5.33398 82.6673C8.2795 82.6673 10.6673 80.2795 10.6673 77.334C10.6673 74.3885 8.2795 72.0006 5.33398 72.0006ZM5.33398 5.33398L4.33398 5.33398L4.33398 77.334L5.33398 77.334L6.33398 77.334L6.33398 5.33398L5.33398 5.33398Z" fill="white"/>
</svg>
